<svg width="1115" height="290" viewBox="0 0 1115 290" fill="none" xmlns="http://www.w3.org/2000/svg">
<g filter="url(#filter0_d_3157_4648)">
<path d="M223.935 121.672L209.304 127.276L224.558 125.972L239.833 214.811L183.647 219.613L174.293 155.109L168.111 217.611L120.088 225.044L99.6789 163.021L103.961 204.142L98.607 207.417L104.817 208.167L106.549 225.433L48.5834 230.386L46.1692 70.2796L57.3555 69.3237L46.417 67.1854L46 50.319L101.925 42.4667L121.729 88.4073L116.142 91.9578L123.006 91.3712L130.629 108.646L141.077 39.1209L208.964 36.3926L223.935 121.672Z" fill="url(#paint0_linear_3157_4648)"/>
<path d="M226.638 123.314L226.753 123.27L226.397 121.24L211.427 35.9603L211.049 33.8068L208.864 33.8946L140.977 36.6229L138.912 36.7059L138.605 38.7494L129.437 99.7529L125.294 90.362L124.86 89.3794L124.868 89.3744L124.024 87.4177L104.221 41.4771L103.466 39.7259L101.577 39.991L45.6524 47.8433L43.4457 48.1531L43.5008 50.3808L43.9177 67.2472L43.9354 67.9614L43.6344 67.9871L43.6695 70.3173L46.0837 230.424L46.1242 233.106L48.7963 232.877L106.762 227.924L109.29 227.708L109.036 225.183L107.305 207.917L107.105 205.925L106.047 205.797L106.611 205.452L106.448 203.883L104.575 185.897L117.714 225.825L118.376 227.839L120.471 227.515L168.493 220.082L170.408 219.785L170.598 217.857L174.762 175.763L181.173 219.971L181.511 222.304L183.86 222.103L240.046 217.302L242.758 217.07L242.297 214.387L227.022 125.549L226.638 123.314Z" stroke="black" stroke-width="5"/>
</g>
<g filter="url(#filter1_d_3157_4648)">
<path d="M768.604 104.361L741.711 139.746L776.289 211.311L729.705 232.379L722.029 213.069L727.312 209.768L720.915 209.944L704.436 168.455L707.387 224.311L644.757 220.009L644.169 177.563L660.611 175.869L644.141 173.218L642.07 46.8872L700.488 43.8145L700.119 70.3683L694.366 72.8776L699.865 75.2097L699.23 106.86L737.397 51.3688L779.825 90.129L771.339 100.927L762.071 97.3755L768.604 104.361Z" fill="url(#paint1_linear_3157_4648)"/>
<path d="M770.595 105.874L771.871 104.194L771.308 103.593L772.166 103.921L773.305 102.472L781.791 91.6738L783.225 89.8488L781.512 88.2832L739.083 49.523L736.964 47.587L735.337 49.952L701.897 98.5707L702.365 75.2599L702.399 73.5686L700.842 72.9081L700.693 72.8453L701.119 72.6597L702.596 72.0151L702.619 70.403L702.987 43.8492L703.025 41.1776L700.356 41.3179L641.939 44.3906L639.531 44.5173L639.571 46.9281L641.642 173.259L641.675 175.307L641.638 175.311L641.669 177.598L642.257 220.043L642.289 222.345L644.585 222.503L707.216 226.805L710.033 226.999L709.884 224.179L707.736 183.537L718.592 210.867L719.038 211.99L718.935 212.054L719.706 213.992L727.382 233.302L728.349 235.736L730.735 234.656L777.319 213.589L779.656 212.533L778.54 210.224L744.629 140.038L770.595 105.874Z" stroke="black" stroke-width="5"/>
</g>
<g filter="url(#filter2_d_3157_4648)">
<path d="M895.163 176.639L887.879 180.706L896.233 182.174L901.553 207.027L831.739 219.177L771.107 215.529L768.301 192.731L771.423 190.622L768.02 189.938L760.089 126.367L773.289 122.475L758.994 120.579L752.414 67.8994L817.627 45.6982L879.095 44.9023L880.503 66.5588L866.338 71.0606L880.632 70.3925L881.634 90.5512L813.975 98.6373L815.174 108.005L868.69 99.5463L876.334 147.503L821.498 158.146L823.128 166.701L890.632 154.528L895.163 176.639Z" fill="url(#paint2_linear_3157_4648)"/>
<path d="M896.382 178.822L897.98 177.93L897.612 176.138L893.081 154.026L892.591 151.634L890.188 152.067L825.12 163.802L824.42 160.126L876.81 149.957L879.183 149.496L878.802 147.109L871.159 99.1528L870.766 96.6871L868.3 97.0769L817.327 105.134L816.775 100.82L881.93 93.0336L884.246 92.7568L884.131 90.4272L883.129 70.2685L883.035 68.3773L883.125 68.3488L882.998 66.3966L881.59 44.7401L881.436 42.3718L879.062 42.4026L817.595 43.1984L817.198 43.2035L816.822 43.3316L751.608 65.5328L749.681 66.1889L749.933 68.2092L756.513 120.889L756.752 122.803L758.665 123.057L761.293 123.406L759.382 123.969L757.345 124.57L757.608 126.677L765.539 190.247L765.693 191.476L765.633 191.516L765.82 193.036L768.625 215.834L768.879 217.899L770.956 218.024L831.588 221.672L831.88 221.69L832.167 221.64L901.982 209.49L904.541 209.045L903.998 206.504L898.677 181.65L898.325 180.003L896.665 179.711L895.238 179.461L896.382 178.822Z" stroke="black" stroke-width="5"/>
</g>
<g filter="url(#filter3_d_3157_4648)">
<path d="M1028.15 61.9237L1018.63 64.1151L1027.51 67.2434L1004.7 224.096L952.667 222.95L948.323 205.719L954.324 202.846L947.131 200.692L936.898 159.875L924.44 216.198L869.578 212.912L879.18 154.701L890.716 150.698L880.352 147.132L898.661 36L944.319 41.0018L955.788 82.2249L941.943 86.2066L957.295 86.7761L962.953 108.021L971.001 41.398L1029.69 51.3149L1028.15 61.9237Z" fill="url(#paint3_linear_3157_4648)"/>
<path d="M1028.71 64.3599L1030.38 63.9759L1030.62 62.2825L1032.16 51.6737L1032.51 49.2567L1030.1 48.8498L971.418 38.9329L968.834 38.4962L968.519 41.0981L962.028 94.8334L959.71 86.1327L959.235 84.3464L957.66 84.2879L958.861 83.9425L958.197 81.5548L946.728 40.3317L946.274 38.701L944.592 38.5167L898.933 33.5149L896.579 33.257L896.194 35.5936L877.885 146.726L877.542 148.81L879.539 149.496L883.061 150.708L878.361 152.34L876.956 152.827L876.714 154.294L867.111 212.505L866.66 215.242L869.429 215.408L924.29 218.694L926.42 218.822L926.881 216.738L937.05 170.762L944.706 201.3L945.052 202.679L946.414 203.087L947.409 203.385L947.243 203.464L945.399 204.347L945.899 206.33L950.243 223.561L950.708 225.407L952.612 225.449L1004.65 226.595L1006.86 226.644L1007.18 224.455L1029.98 67.603L1030.28 65.5689L1028.34 64.8856L1027.58 64.6195L1028.71 64.3599Z" stroke="black" stroke-width="5"/>
</g>
<g filter="url(#filter4_d_3157_4648)">
<path d="M1062.44 156.058L1057.06 157.249L1062.13 159.371L1061.43 171.099L1021.09 172.245L1017.11 69.084L1027.36 66.4395L1016.93 64.4877L1015.99 43.5469L1069 47.9604L1062.44 156.058ZM1020.73 178.874L1060.49 182.057L1063.26 216.807L1025.37 224.117L1018.12 214.56L1025.08 210.332L1016.38 212.236L1012.62 207.328L1020.73 178.874Z" fill="url(#paint4_linear_3157_4648)"/>
<path d="M1064.71 158.116L1064.82 158.091L1064.93 156.21L1071.49 48.1119L1071.64 45.6718L1069.21 45.469L1016.2 41.0555L1013.36 40.8196L1013.49 43.6594L1014.43 64.6003L1014.52 66.5805L1015.85 66.8285L1014.54 67.1668L1014.62 69.1804L1018.59 172.342L1018.69 174.814L1021.16 174.744L1061.5 173.598L1063.79 173.533L1063.93 171.247L1064.62 159.519L1064.71 158.116ZM1020.93 176.382L1018.89 176.219L1018.33 178.189L1010.22 206.642L1009.88 207.849L1010.64 208.845L1014.39 213.753L1014.47 213.857L1014.46 213.863L1016.13 216.071L1023.38 225.628L1024.32 226.866L1025.85 226.572L1063.73 219.262L1065.93 218.838L1065.75 216.609L1062.98 181.859L1062.81 179.735L1060.69 179.565L1020.93 176.382Z" stroke="black" stroke-width="5"/>
</g>
<g filter="url(#filter5_d_3157_4648)">
<path d="M346.526 180.19L339.013 183.817L347.265 185.778L351.102 210.903L280.69 218.891L220.381 211.654L218.932 188.729L222.174 186.809L218.818 185.925L214.67 121.995L228.078 118.893L213.921 116.153L210.477 63.1755L276.892 44.8809L338.298 47.7318L338.42 69.4336L324.013 73.0875L338.321 73.2683L338.125 93.4509L270.106 97.5102L270.747 106.933L324.671 101.662L329.457 149.988L274.087 157.36L275.206 165.997L343.313 157.848L346.526 180.19Z" fill="url(#paint5_linear_3157_4648)"/>
<path d="M347.613 182.441L349.261 181.646L349 179.834L345.788 157.493L345.441 155.076L343.016 155.366L277.367 163.221L276.886 159.51L329.787 152.466L332.183 152.147L331.945 149.741L327.159 101.416L326.913 98.9315L324.428 99.1743L273.067 104.194L272.772 99.8556L338.274 95.9464L340.603 95.8075L340.625 93.4751L340.821 73.2925L340.84 71.3991L340.931 71.376L340.92 69.4196L340.798 47.7178L340.785 45.3445L338.414 45.2345L277.008 42.3835L276.611 42.3651L276.228 42.4706L209.813 60.7653L207.85 61.306L207.982 63.3377L211.426 116.315L211.551 118.24L213.445 118.607L216.048 119.111L214.107 119.56L212.038 120.038L212.176 122.157L216.323 186.087L216.403 187.322L216.341 187.359L216.437 188.887L217.886 211.811L218.017 213.888L220.083 214.136L280.392 221.373L280.682 221.408L280.972 221.375L351.384 213.387L353.966 213.094L353.573 210.526L349.736 185.401L349.482 183.735L347.843 183.346L346.433 183.011L347.613 182.441Z" stroke="black" stroke-width="5"/>
</g>
<g filter="url(#filter6_d_3157_4648)">
<path d="M460.788 191.01L452.812 193.454L460.67 196.645L460.646 222.062L389.838 219.261L331.328 202.947L333.379 180.068L336.874 178.663L333.691 177.279L339.303 113.462L353.026 112.432L339.449 107.573L344.093 54.6873L412.516 46.6934L472.777 58.8389L469.601 80.3074L454.806 81.7304L468.921 84.0825L465.661 104.001L397.815 97.6813L397.017 107.092L451.116 110.074L448.506 158.565L392.658 157.442L392.453 166.148L461.007 168.439L460.788 191.01Z" fill="url(#paint6_linear_3157_4648)"/>
<path d="M461.521 193.4L463.271 192.864L463.288 191.034L463.507 168.464L463.531 166.022L461.091 165.941L395.01 163.732L395.099 159.991L448.455 161.065L450.872 161.113L451.002 158.7L453.612 110.208L453.746 107.715L451.253 107.578L399.726 104.737L400.093 100.404L465.429 106.49L467.752 106.707L468.128 104.405L471.388 84.4863L471.694 82.6176L471.787 82.6086L472.074 80.6733L475.25 59.2048L475.597 56.857L473.271 56.3881L413.01 44.2426L412.62 44.1641L412.226 44.2102L343.802 52.2041L341.78 52.4404L341.602 54.4686L336.959 107.354L336.79 109.276L338.607 109.926L341.103 110.82L339.116 110.969L336.998 111.128L336.812 113.243L331.201 177.06L331.092 178.293L331.025 178.32L330.889 179.845L328.838 202.724L328.652 204.796L330.657 205.355L389.167 221.669L389.448 221.748L389.739 221.759L460.547 224.56L463.144 224.662L463.146 222.064L463.17 196.648L463.172 194.963L461.611 194.329L460.269 193.784L461.521 193.4Z" stroke="black" stroke-width="5"/>
</g>
<g filter="url(#filter7_d_3157_4648)">
<path d="M572.522 59.9652L566.146 63.3556L572.438 64.8193L571.198 100.798L535.751 102.921L535.542 109.556L525.093 112.662L535.31 112.865L531.122 223.839L476.905 220.043L478.446 165.157L485.751 163.111L478.713 161.339L480.481 99.5627L441.188 94.5097L442.422 80.5279L453.474 79.7669L442.689 76.7098L445.604 42.3828L573.034 49.0023L572.522 59.9652Z" fill="url(#paint7_linear_3157_4648)"/>
<path d="M573.696 62.1726L574.953 61.5041L575.019 60.0818L575.531 49.1188L575.647 46.6346L573.163 46.5056L445.734 39.8862L443.318 39.7607L443.113 42.1713L440.198 76.4983L440.024 78.5527L440.085 78.5701L439.932 80.308L438.697 94.2897L438.486 96.6828L440.869 96.9892L477.917 101.754L476.214 161.268L476.159 163.202L475.999 163.246L475.947 165.087L474.406 219.973L474.339 222.37L476.731 222.537L530.947 226.333L533.523 226.513L533.62 223.933L537.809 112.96L537.865 111.474L537.984 111.439L538.041 109.635L538.178 105.28L571.347 103.294L573.618 103.158L573.696 100.884L574.936 64.9054L575.007 62.8502L573.208 62.4317L573.696 62.1726Z" stroke="black" stroke-width="5"/>
</g>
<defs>
<filter id="filter0_d_3157_4648" x="0.890625" y="1.2207" width="284.789" height="284.604" filterUnits="userSpaceOnUse" color-interpolation-filters="sRGB">
<feFlood flood-opacity="0" result="BackgroundImageFix"/>
<feColorMatrix in="SourceAlpha" type="matrix" values="0 0 0 0 0 0 0 0 0 0 0 0 0 0 0 0 0 0 127 0" result="hardAlpha"/>
<feOffset dy="10"/>
<feGaussianBlur stdDeviation="20"/>
<feComposite in2="hardAlpha" operator="out"/>
<feColorMatrix type="matrix" values="0 0 0 0 0 0 0 0 0 0 0 0 0 0 0 0 0 0 0.35 0"/>
<feBlend mode="normal" in2="BackgroundImageFix" result="effect1_dropShadow_3157_4648"/>
<feBlend mode="normal" in="SourceGraphic" in2="effect1_dropShadow_3157_4648" result="shape"/>
</filter>
<filter id="filter1_d_3157_4648" x="596.992" y="8.54102" width="229.633" height="280.552" filterUnits="userSpaceOnUse" color-interpolation-filters="sRGB">
<feFlood flood-opacity="0" result="BackgroundImageFix"/>
<feColorMatrix in="SourceAlpha" type="matrix" values="0 0 0 0 0 0 0 0 0 0 0 0 0 0 0 0 0 0 127 0" result="hardAlpha"/>
<feOffset dy="10"/>
<feGaussianBlur stdDeviation="20"/>
<feComposite in2="hardAlpha" operator="out"/>
<feColorMatrix type="matrix" values="0 0 0 0 0 0 0 0 0 0 0 0 0 0 0 0 0 0 0.35 0"/>
<feBlend mode="normal" in2="BackgroundImageFix" result="effect1_dropShadow_3157_4648"/>
<feBlend mode="normal" in="SourceGraphic" in2="effect1_dropShadow_3157_4648" result="shape"/>
</filter>
<filter id="filter2_d_3157_4648" x="706.945" y="9.8418" width="240.586" height="264.361" filterUnits="userSpaceOnUse" color-interpolation-filters="sRGB">
<feFlood flood-opacity="0" result="BackgroundImageFix"/>
<feColorMatrix in="SourceAlpha" type="matrix" values="0 0 0 0 0 0 0 0 0 0 0 0 0 0 0 0 0 0 127 0" result="hardAlpha"/>
<feOffset dy="10"/>
<feGaussianBlur stdDeviation="20"/>
<feComposite in2="hardAlpha" operator="out"/>
<feColorMatrix type="matrix" values="0 0 0 0 0 0 0 0 0 0 0 0 0 0 0 0 0 0 0.35 0"/>
<feBlend mode="normal" in2="BackgroundImageFix" result="effect1_dropShadow_3157_4648"/>
<feBlend mode="normal" in="SourceGraphic" in2="effect1_dropShadow_3157_4648" result="shape"/>
</filter>
<filter id="filter3_d_3157_4648" x="823.742" y="0.513672" width="251.594" height="278.678" filterUnits="userSpaceOnUse" color-interpolation-filters="sRGB">
<feFlood flood-opacity="0" result="BackgroundImageFix"/>
<feColorMatrix in="SourceAlpha" type="matrix" values="0 0 0 0 0 0 0 0 0 0 0 0 0 0 0 0 0 0 127 0" result="hardAlpha"/>
<feOffset dy="10"/>
<feGaussianBlur stdDeviation="20"/>
<feComposite in2="hardAlpha" operator="out"/>
<feColorMatrix type="matrix" values="0 0 0 0 0 0 0 0 0 0 0 0 0 0 0 0 0 0 0.35 0"/>
<feBlend mode="normal" in2="BackgroundImageFix" result="effect1_dropShadow_3157_4648"/>
<feBlend mode="normal" in="SourceGraphic" in2="effect1_dropShadow_3157_4648" result="shape"/>
</filter>
<filter id="filter4_d_3157_4648" x="967.133" y="8.09277" width="147.156" height="271.522" filterUnits="userSpaceOnUse" color-interpolation-filters="sRGB">
<feFlood flood-opacity="0" result="BackgroundImageFix"/>
<feColorMatrix in="SourceAlpha" type="matrix" values="0 0 0 0 0 0 0 0 0 0 0 0 0 0 0 0 0 0 127 0" result="hardAlpha"/>
<feOffset dy="10"/>
<feGaussianBlur stdDeviation="20"/>
<feComposite in2="hardAlpha" operator="out"/>
<feColorMatrix type="matrix" values="0 0 0 0 0 0 0 0 0 0 0 0 0 0 0 0 0 0 0.35 0"/>
<feBlend mode="normal" in2="BackgroundImageFix" result="effect1_dropShadow_3157_4648"/>
<feBlend mode="normal" in="SourceGraphic" in2="effect1_dropShadow_3157_4648" result="shape"/>
</filter>
<filter id="filter5_d_3157_4648" x="165.227" y="9.84961" width="231.602" height="264.075" filterUnits="userSpaceOnUse" color-interpolation-filters="sRGB">
<feFlood flood-opacity="0" result="BackgroundImageFix"/>
<feColorMatrix in="SourceAlpha" type="matrix" values="0 0 0 0 0 0 0 0 0 0 0 0 0 0 0 0 0 0 127 0" result="hardAlpha"/>
<feOffset dy="10"/>
<feGaussianBlur stdDeviation="20"/>
<feComposite in2="hardAlpha" operator="out"/>
<feColorMatrix type="matrix" values="0 0 0 0 0 0 0 0 0 0 0 0 0 0 0 0 0 0 0.35 0"/>
<feBlend mode="normal" in2="BackgroundImageFix" result="effect1_dropShadow_3157_4648"/>
<feBlend mode="normal" in="SourceGraphic" in2="effect1_dropShadow_3157_4648" result="shape"/>
</filter>
<filter id="filter6_d_3157_4648" x="285.977" y="11.6348" width="232.438" height="265.628" filterUnits="userSpaceOnUse" color-interpolation-filters="sRGB">
<feFlood flood-opacity="0" result="BackgroundImageFix"/>
<feColorMatrix in="SourceAlpha" type="matrix" values="0 0 0 0 0 0 0 0 0 0 0 0 0 0 0 0 0 0 127 0" result="hardAlpha"/>
<feOffset dy="10"/>
<feGaussianBlur stdDeviation="20"/>
<feComposite in2="hardAlpha" operator="out"/>
<feColorMatrix type="matrix" values="0 0 0 0 0 0 0 0 0 0 0 0 0 0 0 0 0 0 0.35 0"/>
<feBlend mode="normal" in2="BackgroundImageFix" result="effect1_dropShadow_3157_4648"/>
<feBlend mode="normal" in="SourceGraphic" in2="effect1_dropShadow_3157_4648" result="shape"/>
</filter>
<filter id="filter7_d_3157_4648" x="395.781" y="7.13867" width="222.477" height="272.049" filterUnits="userSpaceOnUse" color-interpolation-filters="sRGB">
<feFlood flood-opacity="0" result="BackgroundImageFix"/>
<feColorMatrix in="SourceAlpha" type="matrix" values="0 0 0 0 0 0 0 0 0 0 0 0 0 0 0 0 0 0 127 0" result="hardAlpha"/>
<feOffset dy="10"/>
<feGaussianBlur stdDeviation="20"/>
<feComposite in2="hardAlpha" operator="out"/>
<feColorMatrix type="matrix" values="0 0 0 0 0 0 0 0 0 0 0 0 0 0 0 0 0 0 0.35 0"/>
<feBlend mode="normal" in2="BackgroundImageFix" result="effect1_dropShadow_3157_4648"/>
<feBlend mode="normal" in="SourceGraphic" in2="effect1_dropShadow_3157_4648" result="shape"/>
</filter>
<linearGradient id="paint0_linear_3157_4648" x1="258.957" y1="331.036" x2="8.68934" y2="226.783" gradientUnits="userSpaceOnUse">
<stop stop-color="#FFF0F8"/>
<stop offset="0.413916" stop-color="#FEC6EF"/>
<stop offset="1" stop-color="#FFF0F8"/>
</linearGradient>
<linearGradient id="paint1_linear_3157_4648" x1="708.93" y1="269.873" x2="511.629" y2="69.8416" gradientUnits="userSpaceOnUse">
<stop stop-color="#FFF0F8"/>
<stop offset="0.413916" stop-color="#FEC6EF"/>
<stop offset="1" stop-color="#FFF0F8"/>
</linearGradient>
<linearGradient id="paint2_linear_3157_4648" x1="835.455" y1="219.177" x2="718.065" y2="112.669" gradientUnits="userSpaceOnUse">
<stop stop-color="#FFF0F8"/>
<stop offset="0.413916" stop-color="#FEC6EF"/>
<stop offset="1" stop-color="#FFF0F8"/>
</linearGradient>
<linearGradient id="paint3_linear_3157_4648" x1="1017.43" y1="260.228" x2="861.136" y2="184.333" gradientUnits="userSpaceOnUse">
<stop stop-color="#FFF0F8"/>
<stop offset="0.413916" stop-color="#FEC6EF"/>
<stop offset="1" stop-color="#FFF0F8"/>
</linearGradient>
<linearGradient id="paint4_linear_3157_4648" x1="1044.01" y1="224.117" x2="971.102" y2="199.984" gradientUnits="userSpaceOnUse">
<stop stop-color="#FFF0F8"/>
<stop offset="0.413916" stop-color="#FEC6EF"/>
<stop offset="1" stop-color="#FFF0F8"/>
</linearGradient>
<linearGradient id="paint5_linear_3157_4648" x1="293.014" y1="268.952" x2="150.876" y2="128.496" gradientUnits="userSpaceOnUse">
<stop stop-color="#FFF0F8"/>
<stop offset="0.413916" stop-color="#FEC6EF"/>
<stop offset="1" stop-color="#FFF0F8"/>
</linearGradient>
<linearGradient id="paint6_linear_3157_4648" x1="410.087" y1="222.062" x2="292.839" y2="121.797" gradientUnits="userSpaceOnUse">
<stop stop-color="#FFF0F8"/>
<stop offset="0.413916" stop-color="#FEC6EF"/>
<stop offset="1" stop-color="#FFF0F8"/>
</linearGradient>
<linearGradient id="paint7_linear_3157_4648" x1="514.6" y1="223.839" x2="395.857" y2="132.366" gradientUnits="userSpaceOnUse">
<stop stop-color="#FFF0F8"/>
<stop offset="0.413916" stop-color="#FEC6EF"/>
<stop offset="1" stop-color="#FFF0F8"/>
</linearGradient>
</defs>
</svg>
