<svg width="331" height="131" viewBox="0 0 331 131" fill="none" xmlns="http://www.w3.org/2000/svg">
<g filter="url(#filter0_d_3167_6838)">
<mask id="path-1-outside-1_3167_6838" maskUnits="userSpaceOnUse" x="20" y="15" width="291" height="91" fill="black">
<rect fill="white" x="20" y="15" width="291" height="91"/>
<path d="M80.5573 22.1521L79.3784 22.8795L80.6064 23.0735L80.852 29.9111L74.0733 30.784L74.1224 32.0449L72.1576 32.7723L74.1224 32.6753L74.8101 53.7701H64.3473L63.9053 43.3439L65.2806 42.859L63.9053 42.6165L63.4141 30.881L55.8003 30.4446L55.8494 27.7774L57.9616 27.4864L55.8494 27.05L55.9477 20.5033L80.5082 20.0669L80.5573 22.1521Z"/>
<path d="M106.05 29.8626L104.625 30.2506L106.05 30.7355L105.46 52.0728L95.8819 53.3337V38.5915L92.5417 38.64L93.0329 53.3337H82.8648L82.3245 41.7921L83.5525 41.2102L82.2754 40.6768L81.2438 19.2425H92.5908L92.4434 28.2623L89.5453 28.6503L92.4434 29.1837L92.2961 33.0147L96.0293 33.3057L94.8504 19.7759L106.296 20.3093L106.05 29.8626Z"/>
<path d="M133.215 46.5445L131.741 47.175L133.313 47.6114L133.853 52.4123L120.247 53.3822L108.703 51.5394L108.605 47.175L109.244 46.8355L108.605 46.6415L108.31 34.4696L110.914 33.9846L108.212 33.3542L107.966 23.2675L120.885 20.3093L132.674 21.3277L132.527 25.4497L129.727 26.0316L132.478 26.1771L132.281 30.0081L119.166 30.2506L119.215 32.0449L129.629 31.4629L130.169 40.6768L119.461 41.6466L119.608 43.2954L132.773 42.2771L133.215 46.5445Z"/>
<path d="M164.207 45.3807L166.417 37.6701L163.568 28.3593H160.768L161.505 36.1668L159.196 36.8942L161.554 37.0397L162.242 44.4108L164.207 45.3807ZM174.325 28.9897L176.339 46.981L170.052 50.5695H167.006L169.168 51.1515L164.992 53.4792L151.484 51.8789L151.386 27.6319L152.565 27.0015L151.386 26.4681V22.6855L161.014 19.2425L173.883 25.2557L174.276 28.4563L172.361 29.1837L174.325 28.9897Z"/>
<path d="M187.897 44.2168L194.381 43.2469L191.729 29.0867L187.308 29.0382L187.504 33.9846L185.736 34.2756L187.504 34.712L187.897 44.2168ZM202.339 29.8626L199.686 30.881L202.437 30.6385L203.174 48.3388L198.606 50.1816L194.381 50.521L196.837 50.909L190.845 53.3337L178.614 49.5512L177.926 41.1132L180.578 40.7253L177.877 40.2403L176.649 25.4982L190.599 19.7759L202.093 23.9464L202.339 29.8626Z"/>
<path d="M230.515 46.884L228.353 47.078L230.367 47.6599L229.188 53.7216L207.035 53.5277L206.494 50.1816L207.722 49.6966L206.347 49.1632L204.579 37.4277V25.0617L207.722 24.8193L204.579 24.1888V21.6187L216.81 19L229.385 20.8913L227.911 30.1536L218.529 29.4747L215.287 31.1235L215.533 35.9729L213.273 36.7488H215.582L216.073 44.7018L220.985 45.5747L221.231 35.6334L229.778 35.003L230.662 45.9626L230.515 46.884Z"/>
<path d="M257.168 46.5445L255.695 47.175L257.267 47.6114L257.807 52.4123L244.201 53.3822L232.657 51.5394L232.559 47.175L233.197 46.8355L232.559 46.6415L232.264 34.4696L234.868 33.9846L232.166 33.3542L231.92 23.2675L244.839 20.3093L256.628 21.3277L256.481 25.4497L253.681 26.0316L256.432 26.1771L256.235 30.0081L243.12 30.2506L243.169 32.0449L253.583 31.4629L254.123 40.6768L243.415 41.6466L243.562 43.2954L256.726 42.2771L257.168 46.5445Z"/>
<path d="M34.1189 93.5136L39.1784 93.1256L37.9504 86.5789L34.1189 85.7545V88.5672L32.94 88.7612L34.1189 89.1006V93.5136ZM34.1189 72.5157V77.3166L37.5574 76.6862L36.9188 72.6612L34.1189 72.5157ZM47.4307 95.9383L43.9431 96.1322L47.3816 96.7142L47.2342 100.157L24.4421 99.6723L24.393 94.8714L27.5367 94.6774L24.2947 94.1925L24.1474 78.044L25.7684 77.6561L24.0982 77.1226L24 68.3452L35.8382 66.357L45.3676 68.4907L45.3185 73.0491L43.6484 73.4856L45.3185 73.6796L45.2203 78.5289L41.9783 80.5657L48.0202 83.9603L47.4307 95.9383Z"/>
<path d="M74.3797 92.8831L72.9061 93.5136L74.478 93.95L75.0183 98.7509L61.4118 99.7208L49.8684 97.878L49.7701 93.5136L50.4087 93.1741L49.7701 92.9801L49.4754 80.8082L52.0788 80.3232L49.3771 79.6928L49.1315 69.6061L62.0504 66.6479L73.8394 67.6663L73.692 71.7883L70.8922 72.3702L73.6429 72.5157L73.4464 76.3467L60.3311 76.5892L60.3803 78.3835L70.7939 77.8015L71.3342 87.0154L60.6259 87.9853L60.7732 89.634L73.9377 88.6157L74.3797 92.8831Z"/>
<path d="M99.6698 68.6847L96.6734 68.9757L99.7189 69.3636L100.407 75.6678L87.2422 76.3467L87.3895 78.4805L97.6067 78.0925L97.7541 83.0874L96.6734 83.4268L97.7541 83.8148L97.8523 86.5789L87.0948 86.9669L87.1439 91.9618L84.2949 92.3497L87.1439 92.8346L87.2422 99.6238H76.9267L76.5338 82.6024L78.8425 82.166L76.4355 81.875L76.1408 68.4422L88.9123 65.9205L99.5715 67.8118L99.6698 68.6847Z"/>
<path d="M111.889 90.5554L118.373 89.5856L115.721 75.4253L111.3 75.3768L111.496 80.3232L109.728 80.6142L111.496 81.0506L111.889 90.5554ZM126.331 76.2012L123.678 77.2196L126.429 76.9771L127.166 94.6774L122.598 96.5202L118.373 96.8596L120.829 97.2476L114.837 99.6723L102.606 95.8898L101.918 87.4518L104.57 87.0639L101.869 86.5789L100.641 71.8368L114.591 66.1145L126.085 70.285L126.331 76.2012Z"/>
<path d="M143.503 80.3232V72.4672H138.837L139.426 77.5106L138.395 78.1895L139.574 78.3835L139.918 81.5356L143.503 80.3232ZM149.742 85.9485L154.703 92.5437L156.52 97.8295L146.5 102L139.77 88.7612L139.819 94.4834L137.216 95.0169L139.868 95.4533L139.918 99.6723L129.848 99.8178L128.521 69.3636L131.469 68.8787L128.472 68.3937L128.423 66.9389L135.448 65.5811L152.836 66.357L153.278 79.2564L151.264 79.7413L153.278 80.0323L153.377 82.6024L149.742 85.9485Z"/>
<path d="M182.408 92.8831L180.934 93.5136L182.506 93.95L183.046 98.7509L169.44 99.7208L157.896 97.878L157.798 93.5136L158.437 93.1741L157.798 92.9801L157.503 80.8082L160.107 80.3232L157.405 79.6928L157.159 69.6061L170.078 66.6479L181.867 67.6663L181.72 71.7883L178.92 72.3702L181.671 72.5157L181.474 76.3467L168.359 76.5892L168.408 78.3835L178.822 77.8015L179.362 87.0154L168.654 87.9853L168.801 89.634L181.966 88.6157L182.408 92.8831Z"/>
<path d="M213.4 91.7193L215.61 84.0088L212.761 74.6979H209.961L210.698 82.5054L208.389 83.2329L210.747 83.3783L211.435 90.7494L213.4 91.7193ZM223.518 75.3284L225.532 93.3196L219.245 96.9081H216.199L218.361 97.4901L214.185 99.8178L200.677 98.2175L200.579 73.9705L201.758 73.3401L200.579 72.8067V69.0241L210.207 65.5811L223.076 71.5943L223.469 74.7949L221.554 75.5223L223.518 75.3284Z"/>
<path d="M237.09 90.5554L243.574 89.5856L240.922 75.4253L236.501 75.3768L236.697 80.3232L234.929 80.6142L236.697 81.0506L237.09 90.5554ZM251.532 76.2012L248.879 77.2196L251.63 76.9771L252.367 94.6774L247.799 96.5202L243.574 96.8596L246.03 97.2476L240.038 99.6723L227.807 95.8898L227.119 87.4518L229.771 87.0639L227.07 86.5789L225.842 71.8368L239.792 66.1145L251.286 70.285L251.532 76.2012Z"/>
<path d="M279.708 93.2226L277.546 93.4166L279.56 93.9985L278.381 100.06L256.228 99.8663L255.687 96.5202L256.915 96.0352L255.54 95.5018L253.772 83.7663V71.4003L256.915 71.1579L253.772 70.5275V67.9573L266.003 65.3386L278.578 67.2299L277.104 76.4922L267.722 75.8133L264.48 77.4621L264.726 82.3115L262.466 83.0874H264.775L265.266 91.0404L270.178 91.9133L270.424 81.972L278.971 81.3416L279.855 92.3012L279.708 93.2226Z"/>
<path d="M306.361 92.8831L304.888 93.5136L306.46 93.95L307 98.7509L293.393 99.7208L281.85 97.878L281.752 93.5136L282.39 93.1741L281.752 92.9801L281.457 80.8082L284.06 80.3232L281.359 79.6928L281.113 69.6061L294.032 66.6479L305.821 67.6663L305.674 71.7883L302.874 72.3702L305.625 72.5157L305.428 76.3467L292.313 76.5892L292.362 78.3835L302.776 77.8015L303.316 87.0154L292.608 87.9853L292.755 89.634L305.919 88.6157L306.361 92.8831Z"/>
</mask>
<path d="M80.5573 22.1521L79.3784 22.8795L80.6064 23.0735L80.852 29.9111L74.0733 30.784L74.1224 32.0449L72.1576 32.7723L74.1224 32.6753L74.8101 53.7701H64.3473L63.9053 43.3439L65.2806 42.859L63.9053 42.6165L63.4141 30.881L55.8003 30.4446L55.8494 27.7774L57.9616 27.4864L55.8494 27.05L55.9477 20.5033L80.5082 20.0669L80.5573 22.1521Z" fill="url(#paint0_linear_3167_6838)"/>
<path d="M106.05 29.8626L104.625 30.2506L106.05 30.7355L105.46 52.0728L95.8819 53.3337V38.5915L92.5417 38.64L93.0329 53.3337H82.8648L82.3245 41.7921L83.5525 41.2102L82.2754 40.6768L81.2438 19.2425H92.5908L92.4434 28.2623L89.5453 28.6503L92.4434 29.1837L92.2961 33.0147L96.0293 33.3057L94.8504 19.7759L106.296 20.3093L106.05 29.8626Z" fill="url(#paint1_linear_3167_6838)"/>
<path d="M133.215 46.5445L131.741 47.175L133.313 47.6114L133.853 52.4123L120.247 53.3822L108.703 51.5394L108.605 47.175L109.244 46.8355L108.605 46.6415L108.31 34.4696L110.914 33.9846L108.212 33.3542L107.966 23.2675L120.885 20.3093L132.674 21.3277L132.527 25.4497L129.727 26.0316L132.478 26.1771L132.281 30.0081L119.166 30.2506L119.215 32.0449L129.629 31.4629L130.169 40.6768L119.461 41.6466L119.608 43.2954L132.773 42.2771L133.215 46.5445Z" fill="url(#paint2_linear_3167_6838)"/>
<path d="M164.207 45.3807L166.417 37.6701L163.568 28.3593H160.768L161.505 36.1668L159.196 36.8942L161.554 37.0397L162.242 44.4108L164.207 45.3807ZM174.325 28.9897L176.339 46.981L170.052 50.5695H167.006L169.168 51.1515L164.992 53.4792L151.484 51.8789L151.386 27.6319L152.565 27.0015L151.386 26.4681V22.6855L161.014 19.2425L173.883 25.2557L174.276 28.4563L172.361 29.1837L174.325 28.9897Z" fill="url(#paint3_linear_3167_6838)"/>
<path d="M187.897 44.2168L194.381 43.2469L191.729 29.0867L187.308 29.0382L187.504 33.9846L185.736 34.2756L187.504 34.712L187.897 44.2168ZM202.339 29.8626L199.686 30.881L202.437 30.6385L203.174 48.3388L198.606 50.1816L194.381 50.521L196.837 50.909L190.845 53.3337L178.614 49.5512L177.926 41.1132L180.578 40.7253L177.877 40.2403L176.649 25.4982L190.599 19.7759L202.093 23.9464L202.339 29.8626Z" fill="url(#paint4_linear_3167_6838)"/>
<path d="M230.515 46.884L228.353 47.078L230.367 47.6599L229.188 53.7216L207.035 53.5277L206.494 50.1816L207.722 49.6966L206.347 49.1632L204.579 37.4277V25.0617L207.722 24.8193L204.579 24.1888V21.6187L216.81 19L229.385 20.8913L227.911 30.1536L218.529 29.4747L215.287 31.1235L215.533 35.9729L213.273 36.7488H215.582L216.073 44.7018L220.985 45.5747L221.231 35.6334L229.778 35.003L230.662 45.9626L230.515 46.884Z" fill="url(#paint5_linear_3167_6838)"/>
<path d="M257.168 46.5445L255.695 47.175L257.267 47.6114L257.807 52.4123L244.201 53.3822L232.657 51.5394L232.559 47.175L233.197 46.8355L232.559 46.6415L232.264 34.4696L234.868 33.9846L232.166 33.3542L231.92 23.2675L244.839 20.3093L256.628 21.3277L256.481 25.4497L253.681 26.0316L256.432 26.1771L256.235 30.0081L243.12 30.2506L243.169 32.0449L253.583 31.4629L254.123 40.6768L243.415 41.6466L243.562 43.2954L256.726 42.2771L257.168 46.5445Z" fill="url(#paint6_linear_3167_6838)"/>
<path d="M34.1189 93.5136L39.1784 93.1256L37.9504 86.5789L34.1189 85.7545V88.5672L32.94 88.7612L34.1189 89.1006V93.5136ZM34.1189 72.5157V77.3166L37.5574 76.6862L36.9188 72.6612L34.1189 72.5157ZM47.4307 95.9383L43.9431 96.1322L47.3816 96.7142L47.2342 100.157L24.4421 99.6723L24.393 94.8714L27.5367 94.6774L24.2947 94.1925L24.1474 78.044L25.7684 77.6561L24.0982 77.1226L24 68.3452L35.8382 66.357L45.3676 68.4907L45.3185 73.0491L43.6484 73.4856L45.3185 73.6796L45.2203 78.5289L41.9783 80.5657L48.0202 83.9603L47.4307 95.9383Z" fill="url(#paint7_linear_3167_6838)"/>
<path d="M74.3797 92.8831L72.9061 93.5136L74.478 93.95L75.0183 98.7509L61.4118 99.7208L49.8684 97.878L49.7701 93.5136L50.4087 93.1741L49.7701 92.9801L49.4754 80.8082L52.0788 80.3232L49.3771 79.6928L49.1315 69.6061L62.0504 66.6479L73.8394 67.6663L73.692 71.7883L70.8922 72.3702L73.6429 72.5157L73.4464 76.3467L60.3311 76.5892L60.3803 78.3835L70.7939 77.8015L71.3342 87.0154L60.6259 87.9853L60.7732 89.634L73.9377 88.6157L74.3797 92.8831Z" fill="url(#paint8_linear_3167_6838)"/>
<path d="M99.6698 68.6847L96.6734 68.9757L99.7189 69.3636L100.407 75.6678L87.2422 76.3467L87.3895 78.4805L97.6067 78.0925L97.7541 83.0874L96.6734 83.4268L97.7541 83.8148L97.8523 86.5789L87.0948 86.9669L87.1439 91.9618L84.2949 92.3497L87.1439 92.8346L87.2422 99.6238H76.9267L76.5338 82.6024L78.8425 82.166L76.4355 81.875L76.1408 68.4422L88.9123 65.9205L99.5715 67.8118L99.6698 68.6847Z" fill="url(#paint9_linear_3167_6838)"/>
<path d="M111.889 90.5554L118.373 89.5856L115.721 75.4253L111.3 75.3768L111.496 80.3232L109.728 80.6142L111.496 81.0506L111.889 90.5554ZM126.331 76.2012L123.678 77.2196L126.429 76.9771L127.166 94.6774L122.598 96.5202L118.373 96.8596L120.829 97.2476L114.837 99.6723L102.606 95.8898L101.918 87.4518L104.57 87.0639L101.869 86.5789L100.641 71.8368L114.591 66.1145L126.085 70.285L126.331 76.2012Z" fill="url(#paint10_linear_3167_6838)"/>
<path d="M143.503 80.3232V72.4672H138.837L139.426 77.5106L138.395 78.1895L139.574 78.3835L139.918 81.5356L143.503 80.3232ZM149.742 85.9485L154.703 92.5437L156.52 97.8295L146.5 102L139.77 88.7612L139.819 94.4834L137.216 95.0169L139.868 95.4533L139.918 99.6723L129.848 99.8178L128.521 69.3636L131.469 68.8787L128.472 68.3937L128.423 66.9389L135.448 65.5811L152.836 66.357L153.278 79.2564L151.264 79.7413L153.278 80.0323L153.377 82.6024L149.742 85.9485Z" fill="url(#paint11_linear_3167_6838)"/>
<path d="M182.408 92.8831L180.934 93.5136L182.506 93.95L183.046 98.7509L169.44 99.7208L157.896 97.878L157.798 93.5136L158.437 93.1741L157.798 92.9801L157.503 80.8082L160.107 80.3232L157.405 79.6928L157.159 69.6061L170.078 66.6479L181.867 67.6663L181.72 71.7883L178.92 72.3702L181.671 72.5157L181.474 76.3467L168.359 76.5892L168.408 78.3835L178.822 77.8015L179.362 87.0154L168.654 87.9853L168.801 89.634L181.966 88.6157L182.408 92.8831Z" fill="url(#paint12_linear_3167_6838)"/>
<path d="M213.4 91.7193L215.61 84.0088L212.761 74.6979H209.961L210.698 82.5054L208.389 83.2329L210.747 83.3783L211.435 90.7494L213.4 91.7193ZM223.518 75.3284L225.532 93.3196L219.245 96.9081H216.199L218.361 97.4901L214.185 99.8178L200.677 98.2175L200.579 73.9705L201.758 73.3401L200.579 72.8067V69.0241L210.207 65.5811L223.076 71.5943L223.469 74.7949L221.554 75.5223L223.518 75.3284Z" fill="url(#paint13_linear_3167_6838)"/>
<path d="M237.09 90.5554L243.574 89.5856L240.922 75.4253L236.501 75.3768L236.697 80.3232L234.929 80.6142L236.697 81.0506L237.09 90.5554ZM251.532 76.2012L248.879 77.2196L251.63 76.9771L252.367 94.6774L247.799 96.5202L243.574 96.8596L246.03 97.2476L240.038 99.6723L227.807 95.8898L227.119 87.4518L229.771 87.0639L227.07 86.5789L225.842 71.8368L239.792 66.1145L251.286 70.285L251.532 76.2012Z" fill="url(#paint14_linear_3167_6838)"/>
<path d="M279.708 93.2226L277.546 93.4166L279.56 93.9985L278.381 100.06L256.228 99.8663L255.687 96.5202L256.915 96.0352L255.54 95.5018L253.772 83.7663V71.4003L256.915 71.1579L253.772 70.5275V67.9573L266.003 65.3386L278.578 67.2299L277.104 76.4922L267.722 75.8133L264.48 77.4621L264.726 82.3115L262.466 83.0874H264.775L265.266 91.0404L270.178 91.9133L270.424 81.972L278.971 81.3416L279.855 92.3012L279.708 93.2226Z" fill="url(#paint15_linear_3167_6838)"/>
<path d="M306.361 92.8831L304.888 93.5136L306.46 93.95L307 98.7509L293.393 99.7208L281.85 97.878L281.752 93.5136L282.39 93.1741L281.752 92.9801L281.457 80.8082L284.06 80.3232L281.359 79.6928L281.113 69.6061L294.032 66.6479L305.821 67.6663L305.674 71.7883L302.874 72.3702L305.625 72.5157L305.428 76.3467L292.313 76.5892L292.362 78.3835L302.776 77.8015L303.316 87.0154L292.608 87.9853L292.755 89.634L305.919 88.6157L306.361 92.8831Z" fill="url(#paint16_linear_3167_6838)"/>
<path d="M80.5573 22.1521L79.3784 22.8795L80.6064 23.0735L80.852 29.9111L74.0733 30.784L74.1224 32.0449L72.1576 32.7723L74.1224 32.6753L74.8101 53.7701H64.3473L63.9053 43.3439L65.2806 42.859L63.9053 42.6165L63.4141 30.881L55.8003 30.4446L55.8494 27.7774L57.9616 27.4864L55.8494 27.05L55.9477 20.5033L80.5082 20.0669L80.5573 22.1521Z" stroke="black" stroke-width="6" mask="url(#path-1-outside-1_3167_6838)"/>
<path d="M106.05 29.8626L104.625 30.2506L106.05 30.7355L105.46 52.0728L95.8819 53.3337V38.5915L92.5417 38.64L93.0329 53.3337H82.8648L82.3245 41.7921L83.5525 41.2102L82.2754 40.6768L81.2438 19.2425H92.5908L92.4434 28.2623L89.5453 28.6503L92.4434 29.1837L92.2961 33.0147L96.0293 33.3057L94.8504 19.7759L106.296 20.3093L106.05 29.8626Z" stroke="black" stroke-width="6" mask="url(#path-1-outside-1_3167_6838)"/>
<path d="M133.215 46.5445L131.741 47.175L133.313 47.6114L133.853 52.4123L120.247 53.3822L108.703 51.5394L108.605 47.175L109.244 46.8355L108.605 46.6415L108.31 34.4696L110.914 33.9846L108.212 33.3542L107.966 23.2675L120.885 20.3093L132.674 21.3277L132.527 25.4497L129.727 26.0316L132.478 26.1771L132.281 30.0081L119.166 30.2506L119.215 32.0449L129.629 31.4629L130.169 40.6768L119.461 41.6466L119.608 43.2954L132.773 42.2771L133.215 46.5445Z" stroke="black" stroke-width="6" mask="url(#path-1-outside-1_3167_6838)"/>
<path d="M164.207 45.3807L166.417 37.6701L163.568 28.3593H160.768L161.505 36.1668L159.196 36.8942L161.554 37.0397L162.242 44.4108L164.207 45.3807ZM174.325 28.9897L176.339 46.981L170.052 50.5695H167.006L169.168 51.1515L164.992 53.4792L151.484 51.8789L151.386 27.6319L152.565 27.0015L151.386 26.4681V22.6855L161.014 19.2425L173.883 25.2557L174.276 28.4563L172.361 29.1837L174.325 28.9897Z" stroke="black" stroke-width="6" mask="url(#path-1-outside-1_3167_6838)"/>
<path d="M187.897 44.2168L194.381 43.2469L191.729 29.0867L187.308 29.0382L187.504 33.9846L185.736 34.2756L187.504 34.712L187.897 44.2168ZM202.339 29.8626L199.686 30.881L202.437 30.6385L203.174 48.3388L198.606 50.1816L194.381 50.521L196.837 50.909L190.845 53.3337L178.614 49.5512L177.926 41.1132L180.578 40.7253L177.877 40.2403L176.649 25.4982L190.599 19.7759L202.093 23.9464L202.339 29.8626Z" stroke="black" stroke-width="6" mask="url(#path-1-outside-1_3167_6838)"/>
<path d="M230.515 46.884L228.353 47.078L230.367 47.6599L229.188 53.7216L207.035 53.5277L206.494 50.1816L207.722 49.6966L206.347 49.1632L204.579 37.4277V25.0617L207.722 24.8193L204.579 24.1888V21.6187L216.81 19L229.385 20.8913L227.911 30.1536L218.529 29.4747L215.287 31.1235L215.533 35.9729L213.273 36.7488H215.582L216.073 44.7018L220.985 45.5747L221.231 35.6334L229.778 35.003L230.662 45.9626L230.515 46.884Z" stroke="black" stroke-width="6" mask="url(#path-1-outside-1_3167_6838)"/>
<path d="M257.168 46.5445L255.695 47.175L257.267 47.6114L257.807 52.4123L244.201 53.3822L232.657 51.5394L232.559 47.175L233.197 46.8355L232.559 46.6415L232.264 34.4696L234.868 33.9846L232.166 33.3542L231.92 23.2675L244.839 20.3093L256.628 21.3277L256.481 25.4497L253.681 26.0316L256.432 26.1771L256.235 30.0081L243.12 30.2506L243.169 32.0449L253.583 31.4629L254.123 40.6768L243.415 41.6466L243.562 43.2954L256.726 42.2771L257.168 46.5445Z" stroke="black" stroke-width="6" mask="url(#path-1-outside-1_3167_6838)"/>
<path d="M34.1189 93.5136L39.1784 93.1256L37.9504 86.5789L34.1189 85.7545V88.5672L32.94 88.7612L34.1189 89.1006V93.5136ZM34.1189 72.5157V77.3166L37.5574 76.6862L36.9188 72.6612L34.1189 72.5157ZM47.4307 95.9383L43.9431 96.1322L47.3816 96.7142L47.2342 100.157L24.4421 99.6723L24.393 94.8714L27.5367 94.6774L24.2947 94.1925L24.1474 78.044L25.7684 77.6561L24.0982 77.1226L24 68.3452L35.8382 66.357L45.3676 68.4907L45.3185 73.0491L43.6484 73.4856L45.3185 73.6796L45.2203 78.5289L41.9783 80.5657L48.0202 83.9603L47.4307 95.9383Z" stroke="black" stroke-width="6" mask="url(#path-1-outside-1_3167_6838)"/>
<path d="M74.3797 92.8831L72.9061 93.5136L74.478 93.95L75.0183 98.7509L61.4118 99.7208L49.8684 97.878L49.7701 93.5136L50.4087 93.1741L49.7701 92.9801L49.4754 80.8082L52.0788 80.3232L49.3771 79.6928L49.1315 69.6061L62.0504 66.6479L73.8394 67.6663L73.692 71.7883L70.8922 72.3702L73.6429 72.5157L73.4464 76.3467L60.3311 76.5892L60.3803 78.3835L70.7939 77.8015L71.3342 87.0154L60.6259 87.9853L60.7732 89.634L73.9377 88.6157L74.3797 92.8831Z" stroke="black" stroke-width="6" mask="url(#path-1-outside-1_3167_6838)"/>
<path d="M99.6698 68.6847L96.6734 68.9757L99.7189 69.3636L100.407 75.6678L87.2422 76.3467L87.3895 78.4805L97.6067 78.0925L97.7541 83.0874L96.6734 83.4268L97.7541 83.8148L97.8523 86.5789L87.0948 86.9669L87.1439 91.9618L84.2949 92.3497L87.1439 92.8346L87.2422 99.6238H76.9267L76.5338 82.6024L78.8425 82.166L76.4355 81.875L76.1408 68.4422L88.9123 65.9205L99.5715 67.8118L99.6698 68.6847Z" stroke="black" stroke-width="6" mask="url(#path-1-outside-1_3167_6838)"/>
<path d="M111.889 90.5554L118.373 89.5856L115.721 75.4253L111.3 75.3768L111.496 80.3232L109.728 80.6142L111.496 81.0506L111.889 90.5554ZM126.331 76.2012L123.678 77.2196L126.429 76.9771L127.166 94.6774L122.598 96.5202L118.373 96.8596L120.829 97.2476L114.837 99.6723L102.606 95.8898L101.918 87.4518L104.57 87.0639L101.869 86.5789L100.641 71.8368L114.591 66.1145L126.085 70.285L126.331 76.2012Z" stroke="black" stroke-width="6" mask="url(#path-1-outside-1_3167_6838)"/>
<path d="M143.503 80.3232V72.4672H138.837L139.426 77.5106L138.395 78.1895L139.574 78.3835L139.918 81.5356L143.503 80.3232ZM149.742 85.9485L154.703 92.5437L156.52 97.8295L146.5 102L139.77 88.7612L139.819 94.4834L137.216 95.0169L139.868 95.4533L139.918 99.6723L129.848 99.8178L128.521 69.3636L131.469 68.8787L128.472 68.3937L128.423 66.9389L135.448 65.5811L152.836 66.357L153.278 79.2564L151.264 79.7413L153.278 80.0323L153.377 82.6024L149.742 85.9485Z" stroke="black" stroke-width="6" mask="url(#path-1-outside-1_3167_6838)"/>
<path d="M182.408 92.8831L180.934 93.5136L182.506 93.95L183.046 98.7509L169.44 99.7208L157.896 97.878L157.798 93.5136L158.437 93.1741L157.798 92.9801L157.503 80.8082L160.107 80.3232L157.405 79.6928L157.159 69.6061L170.078 66.6479L181.867 67.6663L181.72 71.7883L178.92 72.3702L181.671 72.5157L181.474 76.3467L168.359 76.5892L168.408 78.3835L178.822 77.8015L179.362 87.0154L168.654 87.9853L168.801 89.634L181.966 88.6157L182.408 92.8831Z" stroke="black" stroke-width="6" mask="url(#path-1-outside-1_3167_6838)"/>
<path d="M213.4 91.7193L215.61 84.0088L212.761 74.6979H209.961L210.698 82.5054L208.389 83.2329L210.747 83.3783L211.435 90.7494L213.4 91.7193ZM223.518 75.3284L225.532 93.3196L219.245 96.9081H216.199L218.361 97.4901L214.185 99.8178L200.677 98.2175L200.579 73.9705L201.758 73.3401L200.579 72.8067V69.0241L210.207 65.5811L223.076 71.5943L223.469 74.7949L221.554 75.5223L223.518 75.3284Z" stroke="black" stroke-width="6" mask="url(#path-1-outside-1_3167_6838)"/>
<path d="M237.09 90.5554L243.574 89.5856L240.922 75.4253L236.501 75.3768L236.697 80.3232L234.929 80.6142L236.697 81.0506L237.09 90.5554ZM251.532 76.2012L248.879 77.2196L251.63 76.9771L252.367 94.6774L247.799 96.5202L243.574 96.8596L246.03 97.2476L240.038 99.6723L227.807 95.8898L227.119 87.4518L229.771 87.0639L227.07 86.5789L225.842 71.8368L239.792 66.1145L251.286 70.285L251.532 76.2012Z" stroke="black" stroke-width="6" mask="url(#path-1-outside-1_3167_6838)"/>
<path d="M279.708 93.2226L277.546 93.4166L279.56 93.9985L278.381 100.06L256.228 99.8663L255.687 96.5202L256.915 96.0352L255.54 95.5018L253.772 83.7663V71.4003L256.915 71.1579L253.772 70.5275V67.9573L266.003 65.3386L278.578 67.2299L277.104 76.4922L267.722 75.8133L264.48 77.4621L264.726 82.3115L262.466 83.0874H264.775L265.266 91.0404L270.178 91.9133L270.424 81.972L278.971 81.3416L279.855 92.3012L279.708 93.2226Z" stroke="black" stroke-width="6" mask="url(#path-1-outside-1_3167_6838)"/>
<path d="M306.361 92.8831L304.888 93.5136L306.46 93.95L307 98.7509L293.393 99.7208L281.85 97.878L281.752 93.5136L282.39 93.1741L281.752 92.9801L281.457 80.8082L284.06 80.3232L281.359 79.6928L281.113 69.6061L294.032 66.6479L305.821 67.6663L305.674 71.7883L302.874 72.3702L305.625 72.5157L305.428 76.3467L292.313 76.5892L292.362 78.3835L302.776 77.8015L303.316 87.0154L292.608 87.9853L292.755 89.634L305.919 88.6157L306.361 92.8831Z" stroke="black" stroke-width="6" mask="url(#path-1-outside-1_3167_6838)"/>
</g>
<defs>
<filter id="filter0_d_3167_6838" x="0.96875" y="0.952148" width="329.359" height="129.886" filterUnits="userSpaceOnUse" color-interpolation-filters="sRGB">
<feFlood flood-opacity="0" result="BackgroundImageFix"/>
<feColorMatrix in="SourceAlpha" type="matrix" values="0 0 0 0 0 0 0 0 0 0 0 0 0 0 0 0 0 0 127 0" result="hardAlpha"/>
<feOffset dy="5"/>
<feGaussianBlur stdDeviation="10"/>
<feComposite in2="hardAlpha" operator="out"/>
<feColorMatrix type="matrix" values="0 0 0 0 0 0 0 0 0 0 0 0 0 0 0 0 0 0 0.15 0"/>
<feBlend mode="normal" in2="BackgroundImageFix" result="effect1_dropShadow_3167_6838"/>
<feBlend mode="normal" in="SourceGraphic" in2="effect1_dropShadow_3167_6838" result="shape"/>
</filter>
<linearGradient id="paint0_linear_3167_6838" x1="181.28" y1="109.323" x2="146.046" y2="-5.2909" gradientUnits="userSpaceOnUse">
<stop stop-color="#FFF0F8"/>
<stop offset="0.413916" stop-color="#E9E9E9"/>
<stop offset="1" stop-color="#FFF0F8"/>
</linearGradient>
<linearGradient id="paint1_linear_3167_6838" x1="181.28" y1="109.323" x2="146.046" y2="-5.2909" gradientUnits="userSpaceOnUse">
<stop stop-color="#FFF0F8"/>
<stop offset="0.413916" stop-color="#E9E9E9"/>
<stop offset="1" stop-color="#FFF0F8"/>
</linearGradient>
<linearGradient id="paint2_linear_3167_6838" x1="181.28" y1="109.323" x2="146.046" y2="-5.2909" gradientUnits="userSpaceOnUse">
<stop stop-color="#FFF0F8"/>
<stop offset="0.413916" stop-color="#E9E9E9"/>
<stop offset="1" stop-color="#FFF0F8"/>
</linearGradient>
<linearGradient id="paint3_linear_3167_6838" x1="181.28" y1="109.323" x2="146.046" y2="-5.2909" gradientUnits="userSpaceOnUse">
<stop stop-color="#FFF0F8"/>
<stop offset="0.413916" stop-color="#E9E9E9"/>
<stop offset="1" stop-color="#FFF0F8"/>
</linearGradient>
<linearGradient id="paint4_linear_3167_6838" x1="181.28" y1="109.323" x2="146.046" y2="-5.2909" gradientUnits="userSpaceOnUse">
<stop stop-color="#FFF0F8"/>
<stop offset="0.413916" stop-color="#E9E9E9"/>
<stop offset="1" stop-color="#FFF0F8"/>
</linearGradient>
<linearGradient id="paint5_linear_3167_6838" x1="181.28" y1="109.323" x2="146.046" y2="-5.2909" gradientUnits="userSpaceOnUse">
<stop stop-color="#FFF0F8"/>
<stop offset="0.413916" stop-color="#E9E9E9"/>
<stop offset="1" stop-color="#FFF0F8"/>
</linearGradient>
<linearGradient id="paint6_linear_3167_6838" x1="181.28" y1="109.323" x2="146.046" y2="-5.2909" gradientUnits="userSpaceOnUse">
<stop stop-color="#FFF0F8"/>
<stop offset="0.413916" stop-color="#E9E9E9"/>
<stop offset="1" stop-color="#FFF0F8"/>
</linearGradient>
<linearGradient id="paint7_linear_3167_6838" x1="181.28" y1="109.323" x2="146.046" y2="-5.2909" gradientUnits="userSpaceOnUse">
<stop stop-color="#FFF0F8"/>
<stop offset="0.413916" stop-color="#E9E9E9"/>
<stop offset="1" stop-color="#FFF0F8"/>
</linearGradient>
<linearGradient id="paint8_linear_3167_6838" x1="181.28" y1="109.323" x2="146.046" y2="-5.2909" gradientUnits="userSpaceOnUse">
<stop stop-color="#FFF0F8"/>
<stop offset="0.413916" stop-color="#E9E9E9"/>
<stop offset="1" stop-color="#FFF0F8"/>
</linearGradient>
<linearGradient id="paint9_linear_3167_6838" x1="181.28" y1="109.323" x2="146.046" y2="-5.2909" gradientUnits="userSpaceOnUse">
<stop stop-color="#FFF0F8"/>
<stop offset="0.413916" stop-color="#E9E9E9"/>
<stop offset="1" stop-color="#FFF0F8"/>
</linearGradient>
<linearGradient id="paint10_linear_3167_6838" x1="181.28" y1="109.323" x2="146.046" y2="-5.2909" gradientUnits="userSpaceOnUse">
<stop stop-color="#FFF0F8"/>
<stop offset="0.413916" stop-color="#E9E9E9"/>
<stop offset="1" stop-color="#FFF0F8"/>
</linearGradient>
<linearGradient id="paint11_linear_3167_6838" x1="181.28" y1="109.323" x2="146.046" y2="-5.2909" gradientUnits="userSpaceOnUse">
<stop stop-color="#FFF0F8"/>
<stop offset="0.413916" stop-color="#E9E9E9"/>
<stop offset="1" stop-color="#FFF0F8"/>
</linearGradient>
<linearGradient id="paint12_linear_3167_6838" x1="181.28" y1="109.323" x2="146.046" y2="-5.2909" gradientUnits="userSpaceOnUse">
<stop stop-color="#FFF0F8"/>
<stop offset="0.413916" stop-color="#E9E9E9"/>
<stop offset="1" stop-color="#FFF0F8"/>
</linearGradient>
<linearGradient id="paint13_linear_3167_6838" x1="181.28" y1="109.323" x2="146.046" y2="-5.2909" gradientUnits="userSpaceOnUse">
<stop stop-color="#FFF0F8"/>
<stop offset="0.413916" stop-color="#E9E9E9"/>
<stop offset="1" stop-color="#FFF0F8"/>
</linearGradient>
<linearGradient id="paint14_linear_3167_6838" x1="181.28" y1="109.323" x2="146.046" y2="-5.2909" gradientUnits="userSpaceOnUse">
<stop stop-color="#FFF0F8"/>
<stop offset="0.413916" stop-color="#E9E9E9"/>
<stop offset="1" stop-color="#FFF0F8"/>
</linearGradient>
<linearGradient id="paint15_linear_3167_6838" x1="181.28" y1="109.323" x2="146.046" y2="-5.2909" gradientUnits="userSpaceOnUse">
<stop stop-color="#FFF0F8"/>
<stop offset="0.413916" stop-color="#E9E9E9"/>
<stop offset="1" stop-color="#FFF0F8"/>
</linearGradient>
<linearGradient id="paint16_linear_3167_6838" x1="181.28" y1="109.323" x2="146.046" y2="-5.2909" gradientUnits="userSpaceOnUse">
<stop stop-color="#FFF0F8"/>
<stop offset="0.413916" stop-color="#E9E9E9"/>
<stop offset="1" stop-color="#FFF0F8"/>
</linearGradient>
</defs>
</svg>
