<svg width="259" height="189" viewBox="0 0 259 189" fill="none" xmlns="http://www.w3.org/2000/svg">
<g filter="url(#filter0_d_3168_7008)">
<path d="M84.524 98.2868L70.5976 116.611L88.5037 153.67L64.3806 164.579L60.4056 154.58L63.1414 152.871L59.8288 152.962L51.2952 131.477L52.8235 160.401L20.3911 158.174L20.0869 136.194L28.6009 135.316L20.0724 133.944L19 68.5248L49.2507 66.9336L49.0598 80.6842L46.0809 81.9836L48.9285 83.1912L48.5994 99.5808L68.3636 70.8455L90.3348 90.917L85.9403 96.5086L81.141 94.6695L84.524 98.2868Z" fill="url(#paint0_linear_3168_7008)"/>
<path d="M85.7183 99.1945L86.4037 98.2926L86.4362 98.305L87.1196 97.4355L91.5142 91.8439L92.3748 90.7489L91.3465 89.8095L69.3753 69.738L68.1037 68.5764L67.1277 69.9955L50.1996 94.6074L50.4282 83.2214L50.4486 82.2066L49.877 81.9642L50.5462 81.6723L50.5597 80.705L50.7506 66.9544L50.7729 65.3515L49.1719 65.4357L18.9212 67.0268L17.4765 67.1028L17.5002 68.5493L18.5726 133.968L18.5869 134.84L18.568 134.842L18.587 136.214L18.8913 158.194L18.9104 159.575L20.2883 159.67L52.7207 161.898L54.4108 162.014L54.3214 160.322L53.2754 140.526L58.4347 153.516L58.6024 153.938L58.5494 153.971L59.0117 155.134L62.9867 165.133L63.5671 166.593L64.9986 165.946L89.1218 155.037L90.5236 154.403L89.8543 153.017L72.3483 116.786L85.7183 99.1945Z" stroke="black" stroke-width="3"/>
</g>
<g filter="url(#filter1_d_3168_7008)">
<path d="M150.062 135.716L146.289 137.822L150.615 138.582L153.37 151.452L117.218 157.744L85.8203 155.855L84.3675 144.049L85.984 142.957L84.2221 142.603L80.1149 109.684L86.9505 107.668L79.5479 106.686L76.1406 79.4068L109.911 67.9102L141.741 67.498L142.47 78.7126L135.135 81.0438L142.537 80.6978L143.055 91.1368L108.019 95.324L108.64 100.175L136.353 95.7947L140.311 120.628L111.915 126.14L112.759 130.57L147.715 124.266L150.062 135.716Z" fill="url(#paint1_linear_3168_7008)"/>
<path d="M150.793 137.026L151.752 136.491L151.531 135.415L149.184 123.965L148.89 122.53L147.449 122.79L113.954 128.83L113.668 127.328L140.597 122.101L142.02 121.825L141.792 120.392L137.834 95.5586L137.598 94.0793L136.119 94.3131L109.932 98.4523L109.699 96.6339L143.233 92.6262L144.623 92.4601L144.554 91.0623L144.035 80.6234L143.994 79.8021L144.043 79.7866L143.967 78.6152L143.238 67.4007L143.145 65.9797L141.721 65.9982L109.891 66.4103L109.653 66.4134L109.427 66.4902L75.6572 77.9868L74.5008 78.3805L74.6522 79.5927L78.0594 106.872L78.2029 108.021L79.3506 108.173L79.7527 108.227L79.6907 108.245L78.4687 108.605L78.6264 109.869L82.7336 142.789L82.7974 143.3L82.7665 143.321L82.8787 144.232L84.3315 156.038L84.484 157.277L85.7302 157.352L117.128 159.241L117.303 159.252L117.475 159.222L153.628 152.93L155.163 152.663L154.837 151.138L152.082 138.268L151.871 137.28L150.875 137.105L150.705 137.075L150.793 137.026Z" stroke="black" stroke-width="3"/>
</g>
<g filter="url(#filter2_d_3168_7008)">
<path d="M218.927 76.311L213.998 77.4458L218.594 79.0657L206.785 160.29L179.839 159.696L177.59 150.774L180.697 149.286L176.972 148.17L171.673 127.034L165.222 156.2L136.812 154.498L141.785 124.355L147.758 122.281L142.392 120.435L151.873 62.8867L175.516 65.4768L181.455 86.8237L174.286 88.8856L182.235 89.1805L185.165 100.182L189.333 65.682L219.723 70.8173L218.927 76.311Z" fill="url(#paint2_linear_3168_7008)"/>
<path d="M219.369 77.7484L220.264 77.5423L220.411 76.5263L221.208 71.0326L221.418 69.5825L219.973 69.3383L189.583 64.203L188.033 63.9409L187.844 65.5021L184.61 92.2693L183.685 88.7945L183.399 87.7227L183.261 87.7175L182.901 86.4216L176.961 65.0748L176.689 64.0964L175.68 63.9858L152.036 61.3956L150.623 61.2409L150.392 62.6429L140.912 120.191L140.706 121.442L141.904 121.854L143.166 122.288L141.293 122.938L140.45 123.23L140.305 124.111L135.333 154.254L135.062 155.896L136.723 155.996L165.132 157.698L166.41 157.774L166.686 156.524L171.765 133.566L175.517 148.535L175.725 149.362L176.542 149.607L176.548 149.609L175.835 149.95L176.135 151.14L178.384 160.063L178.664 161.171L179.806 161.196L206.752 161.789L208.079 161.819L208.27 160.506L220.078 79.2815L220.256 78.061L219.369 77.7484Z" stroke="black" stroke-width="3"/>
</g>
<g filter="url(#filter3_d_3168_7008)">
<path d="M236.684 125.059L233.899 125.676L236.525 126.775L236.164 132.848L215.275 133.442L213.215 80.021L218.523 78.6515L213.121 77.6408L212.632 66.7969L240.083 69.0823L236.684 125.059ZM215.089 136.875L235.678 138.523L237.11 156.518L217.492 160.303L213.738 155.354L217.341 153.165L212.833 154.15L210.891 151.609L215.089 136.875Z" fill="url(#paint3_linear_3168_7008)"/>
<path d="M238.056 126.292L238.113 126.279L238.182 125.15L241.58 69.1732L241.669 67.7092L240.207 67.5875L212.757 65.302L211.057 65.1605L211.134 66.8644L211.623 77.7084L211.675 78.8693L211.67 78.8706L211.717 80.0788L213.776 133.5L213.834 134.983L215.318 134.941L236.207 134.347L237.58 134.308L237.662 132.937L238.022 126.864L238.056 126.292ZM215.208 135.379L213.983 135.281L213.646 136.464L209.448 151.198L209.242 151.921L209.699 152.519L211.543 154.933L211.539 154.936L212.543 156.261L216.297 161.21L216.861 161.953L217.777 161.776L237.395 157.99L238.712 157.736L238.606 156.399L237.173 138.404L237.072 137.129L235.798 137.027L215.208 135.379Z" stroke="black" stroke-width="3"/>
</g>
<g filter="url(#filter4_d_3168_7008)">
<path d="M101.024 40.3716L96.4997 42.1045L101.217 41.7014L105.94 69.1736L88.5656 70.6584L85.6731 50.7114L83.7611 70.0394L68.9109 72.338L62.5995 53.1583L63.9237 65.8744L62.268 66.887L64.1885 67.1189L64.724 72.4582L46.7989 73.99L46.0523 24.4791L49.5116 24.1835L46.1289 23.5223L46 18.3066L63.2941 15.8784L69.4181 30.0849L67.6905 31.1828L69.8132 31.0014L72.1703 36.3435L75.4014 14.8437L96.3946 14L101.024 40.3716Z" fill="url(#paint4_linear_3168_7008)"/>
<path d="M102.677 41.3445L102.715 41.3301L102.501 40.1122L97.872 13.7406L97.6452 12.4485L96.3343 12.5012L75.3411 13.3449L74.1023 13.3947L73.918 14.6208L71.4554 31.0075L71.1882 30.4019L70.7956 29.4911L64.6716 15.2846L64.2186 14.2338L63.0855 14.3929L45.7914 16.8211L44.4674 17.007L44.5005 18.3436L44.618 23.0962L44.5314 23.1036L44.5525 24.5017L45.2991 74.0126L45.3233 75.6216L46.9266 75.4846L64.8517 73.9528L66.3684 73.8232L66.2165 72.3085L65.7318 67.4759L67.4861 72.8069L67.8836 74.0149L69.1403 73.8203L83.9905 71.5218L85.1394 71.344L85.2538 70.1871L85.9545 63.1043L87.0811 70.8736L87.2841 72.2733L88.6933 72.1529L106.068 70.6681L107.695 70.5291L107.419 68.9194L102.695 41.4472L102.677 41.3445Z" stroke="black" stroke-width="3"/>
</g>
<g filter="url(#filter5_d_3168_7008)">
<path d="M138.931 58.4656L136.608 59.5873L139.159 60.1936L140.346 67.9632L118.572 70.4334L99.9222 68.1954L99.4742 61.1063L100.477 60.5125L99.4388 60.239L98.1562 40.4697L102.302 39.5104L97.9244 38.6629L96.8594 22.2804L117.397 16.623L136.387 17.5047L136.424 24.2157L131.969 25.3456L136.394 25.4015L136.333 31.6427L115.299 32.898L115.497 35.8118L132.173 34.182L133.653 49.126L116.53 51.4059L116.876 54.0767L137.937 51.5568L138.931 58.4656Z" fill="url(#paint5_linear_3168_7008)"/>
<path d="M140.548 59.3505L140.572 59.339L140.416 58.2521L139.422 51.3433L139.214 49.8934L137.759 50.0674L135.282 50.3637L135.145 48.9782L133.665 34.0342L133.593 33.3089L136.422 33.14L137.819 33.0567L137.833 31.6572L137.894 25.416L137.894 25.3904L137.931 25.3811L137.924 24.2073L137.887 17.4962L137.879 16.0723L136.456 16.0063L117.467 15.1247L117.229 15.1136L116.999 15.1769L96.461 20.8343L95.2833 21.1587L95.3625 22.3777L96.4275 38.7602L96.5027 39.9155L96.6186 39.9379L96.6594 40.5668L97.9378 60.273L97.9193 60.284L97.9772 61.2009L98.4252 68.29L98.5039 69.5359L99.7435 69.6847L118.393 71.9227L118.567 71.9435L118.741 71.9238L140.515 69.4537L142.064 69.2779L141.829 67.7368L140.642 59.9672L140.548 59.3505Z" stroke="black" stroke-width="3"/>
</g>
<g filter="url(#filter6_d_3168_7008)">
<path d="M174.268 61.8115L171.802 62.5673L174.232 63.5542L174.224 71.4139L152.328 70.5479L134.234 65.503L134.868 58.4281L135.949 57.9934L134.965 57.5655L136.7 37.8308L140.944 37.5124L136.746 36.0097L138.182 19.6556L159.341 17.1836L177.976 20.9394L176.993 27.5783L172.418 28.0183L176.783 28.7457L175.775 34.9053L154.795 32.9509L154.548 35.8611L171.277 36.7832L170.47 51.7785L153.2 51.431L153.136 54.1235L174.336 54.832L174.268 61.8115Z" fill="url(#paint6_linear_3168_7008)"/>
<path d="M175.732 62.9318L175.758 62.9241L175.768 61.8261L175.836 54.8465L175.85 53.3818L174.386 53.3328L171.893 53.2495L171.968 51.8592L172.775 36.8638L172.814 36.136L175.636 36.3988L177.029 36.5286L177.255 35.1475L178.263 28.9879L178.268 28.9626L178.305 28.959L178.477 27.7978L179.459 21.159L179.668 19.7503L178.272 19.469L159.637 15.7132L159.403 15.6661L159.167 15.6937L138.008 18.1657L136.794 18.3075L136.687 19.5244L135.252 35.8785L135.15 37.0318L135.261 37.0716L135.206 37.6994L133.476 57.3711L133.456 57.3792L133.374 58.2942L132.74 65.3691L132.629 66.6125L133.832 66.9479L151.925 71.9928L152.094 72.0398L152.269 72.0467L174.165 72.9128L175.723 72.9744L175.724 71.4153L175.732 63.5557L175.732 62.9318Z" stroke="black" stroke-width="3"/>
</g>
<g filter="url(#filter7_d_3168_7008)">
<path d="M208.817 21.2887L206.845 22.3371L208.791 22.7897L208.407 33.9158L197.446 34.5721L197.381 36.6241L194.15 37.5844L197.309 37.6474L196.014 71.9645L179.248 70.7907L179.725 53.8179L181.984 53.1851L179.807 52.6372L180.354 33.5337L168.203 31.9711L168.585 27.6474L172.003 27.4121L168.668 26.4667L169.569 15.8516L208.975 17.8985L208.817 21.2887Z" fill="url(#paint7_linear_3168_7008)"/>
<path d="M210.304 21.6016L210.315 21.3586L210.473 17.9685L210.543 16.478L209.053 16.4006L169.647 14.3536L168.197 14.2783L168.074 15.7246L167.173 26.3398L167.068 27.5725L167.085 27.5773L166.709 31.8392L166.582 33.275L168.012 33.4589L178.816 34.8482L178.308 52.5943L178.306 52.6576L178.256 52.6715L178.225 53.7758L177.749 70.7486L177.709 72.1866L179.144 72.2871L195.909 73.4609L197.455 73.569L197.513 72.0211L198.806 37.7655L198.846 37.7535L198.88 36.6713L198.902 35.9876L208.497 35.4131L209.859 35.3315L209.906 33.9674L210.29 22.8414L210.332 21.6083L210.304 21.6016Z" stroke="black" stroke-width="3"/>
</g>
<defs>
<filter id="filter0_d_3168_7008" x="0.953125" y="53.7695" width="108.461" height="134.838" filterUnits="userSpaceOnUse" color-interpolation-filters="sRGB">
<feFlood flood-opacity="0" result="BackgroundImageFix"/>
<feColorMatrix in="SourceAlpha" type="matrix" values="0 0 0 0 0 0 0 0 0 0 0 0 0 0 0 0 0 0 127 0" result="hardAlpha"/>
<feOffset dy="5"/>
<feGaussianBlur stdDeviation="7.5"/>
<feComposite in2="hardAlpha" operator="out"/>
<feColorMatrix type="matrix" values="0 0 0 0 0 0 0 0 0 0 0 0 0 0 0 0 0 0 0.25 0"/>
<feBlend mode="normal" in2="BackgroundImageFix" result="effect1_dropShadow_3168_7008"/>
<feBlend mode="normal" in="SourceGraphic" in2="effect1_dropShadow_3168_7008" result="shape"/>
</filter>
<filter id="filter1_d_3168_7008" x="57.8594" y="54.4619" width="114.094" height="126.298" filterUnits="userSpaceOnUse" color-interpolation-filters="sRGB">
<feFlood flood-opacity="0" result="BackgroundImageFix"/>
<feColorMatrix in="SourceAlpha" type="matrix" values="0 0 0 0 0 0 0 0 0 0 0 0 0 0 0 0 0 0 127 0" result="hardAlpha"/>
<feOffset dy="5"/>
<feGaussianBlur stdDeviation="7.5"/>
<feComposite in2="hardAlpha" operator="out"/>
<feColorMatrix type="matrix" values="0 0 0 0 0 0 0 0 0 0 0 0 0 0 0 0 0 0 0.25 0"/>
<feBlend mode="normal" in2="BackgroundImageFix" result="effect1_dropShadow_3168_7008"/>
<feBlend mode="normal" in="SourceGraphic" in2="effect1_dropShadow_3168_7008" result="shape"/>
</filter>
<filter id="filter2_d_3168_7008" x="118.312" y="49.5947" width="119.797" height="133.753" filterUnits="userSpaceOnUse" color-interpolation-filters="sRGB">
<feFlood flood-opacity="0" result="BackgroundImageFix"/>
<feColorMatrix in="SourceAlpha" type="matrix" values="0 0 0 0 0 0 0 0 0 0 0 0 0 0 0 0 0 0 127 0" result="hardAlpha"/>
<feOffset dy="5"/>
<feGaussianBlur stdDeviation="7.5"/>
<feComposite in2="hardAlpha" operator="out"/>
<feColorMatrix type="matrix" values="0 0 0 0 0 0 0 0 0 0 0 0 0 0 0 0 0 0 0.25 0"/>
<feBlend mode="normal" in2="BackgroundImageFix" result="effect1_dropShadow_3168_7008"/>
<feBlend mode="normal" in="SourceGraphic" in2="effect1_dropShadow_3168_7008" result="shape"/>
</filter>
<filter id="filter3_d_3168_7008" x="192.594" y="53.5244" width="65.6641" height="130.078" filterUnits="userSpaceOnUse" color-interpolation-filters="sRGB">
<feFlood flood-opacity="0" result="BackgroundImageFix"/>
<feColorMatrix in="SourceAlpha" type="matrix" values="0 0 0 0 0 0 0 0 0 0 0 0 0 0 0 0 0 0 127 0" result="hardAlpha"/>
<feOffset dy="5"/>
<feGaussianBlur stdDeviation="7.5"/>
<feComposite in2="hardAlpha" operator="out"/>
<feColorMatrix type="matrix" values="0 0 0 0 0 0 0 0 0 0 0 0 0 0 0 0 0 0 0.25 0"/>
<feBlend mode="normal" in2="BackgroundImageFix" result="effect1_dropShadow_3168_7008"/>
<feBlend mode="normal" in="SourceGraphic" in2="effect1_dropShadow_3168_7008" result="shape"/>
</filter>
<filter id="filter4_d_3168_7008" x="27.9375" y="0.897461" width="96.5156" height="96.3555" filterUnits="userSpaceOnUse" color-interpolation-filters="sRGB">
<feFlood flood-opacity="0" result="BackgroundImageFix"/>
<feColorMatrix in="SourceAlpha" type="matrix" values="0 0 0 0 0 0 0 0 0 0 0 0 0 0 0 0 0 0 127 0" result="hardAlpha"/>
<feOffset dy="5"/>
<feGaussianBlur stdDeviation="7.5"/>
<feComposite in2="hardAlpha" operator="out"/>
<feColorMatrix type="matrix" values="0 0 0 0 0 0 0 0 0 0 0 0 0 0 0 0 0 0 0.25 0"/>
<feBlend mode="normal" in2="BackgroundImageFix" result="effect1_dropShadow_3168_7008"/>
<feBlend mode="normal" in="SourceGraphic" in2="effect1_dropShadow_3168_7008" result="shape"/>
</filter>
<filter id="filter5_d_3168_7008" x="78.7109" y="3.60449" width="80.0703" height="89.8496" filterUnits="userSpaceOnUse" color-interpolation-filters="sRGB">
<feFlood flood-opacity="0" result="BackgroundImageFix"/>
<feColorMatrix in="SourceAlpha" type="matrix" values="0 0 0 0 0 0 0 0 0 0 0 0 0 0 0 0 0 0 127 0" result="hardAlpha"/>
<feOffset dy="5"/>
<feGaussianBlur stdDeviation="7.5"/>
<feComposite in2="hardAlpha" operator="out"/>
<feColorMatrix type="matrix" values="0 0 0 0 0 0 0 0 0 0 0 0 0 0 0 0 0 0 0.25 0"/>
<feBlend mode="normal" in2="BackgroundImageFix" result="effect1_dropShadow_3168_7008"/>
<feBlend mode="normal" in="SourceGraphic" in2="effect1_dropShadow_3168_7008" result="shape"/>
</filter>
<filter id="filter6_d_3168_7008" x="116.023" y="4.14844" width="80.3359" height="90.3867" filterUnits="userSpaceOnUse" color-interpolation-filters="sRGB">
<feFlood flood-opacity="0" result="BackgroundImageFix"/>
<feColorMatrix in="SourceAlpha" type="matrix" values="0 0 0 0 0 0 0 0 0 0 0 0 0 0 0 0 0 0 127 0" result="hardAlpha"/>
<feOffset dy="5"/>
<feGaussianBlur stdDeviation="7.5"/>
<feComposite in2="hardAlpha" operator="out"/>
<feColorMatrix type="matrix" values="0 0 0 0 0 0 0 0 0 0 0 0 0 0 0 0 0 0 0.25 0"/>
<feBlend mode="normal" in2="BackgroundImageFix" result="effect1_dropShadow_3168_7008"/>
<feBlend mode="normal" in="SourceGraphic" in2="effect1_dropShadow_3168_7008" result="shape"/>
</filter>
<filter id="filter7_d_3168_7008" x="149.961" y="2.70508" width="77.1484" height="92.4688" filterUnits="userSpaceOnUse" color-interpolation-filters="sRGB">
<feFlood flood-opacity="0" result="BackgroundImageFix"/>
<feColorMatrix in="SourceAlpha" type="matrix" values="0 0 0 0 0 0 0 0 0 0 0 0 0 0 0 0 0 0 127 0" result="hardAlpha"/>
<feOffset dy="5"/>
<feGaussianBlur stdDeviation="7.5"/>
<feComposite in2="hardAlpha" operator="out"/>
<feColorMatrix type="matrix" values="0 0 0 0 0 0 0 0 0 0 0 0 0 0 0 0 0 0 0.25 0"/>
<feBlend mode="normal" in2="BackgroundImageFix" result="effect1_dropShadow_3168_7008"/>
<feBlend mode="normal" in="SourceGraphic" in2="effect1_dropShadow_3168_7008" result="shape"/>
</filter>
<linearGradient id="paint0_linear_3168_7008" x1="53.6226" y1="183.995" x2="-48.5476" y2="80.4114" gradientUnits="userSpaceOnUse">
<stop stop-color="#FFF0F8"/>
<stop offset="0.413916" stop-color="#FEC6EF"/>
<stop offset="1" stop-color="#FFF0F8"/>
</linearGradient>
<linearGradient id="paint1_linear_3168_7008" x1="119.142" y1="157.744" x2="58.3531" y2="102.59" gradientUnits="userSpaceOnUse">
<stop stop-color="#FFF0F8"/>
<stop offset="0.413916" stop-color="#FEC6EF"/>
<stop offset="1" stop-color="#FFF0F8"/>
</linearGradient>
<linearGradient id="paint2_linear_3168_7008" x1="213.374" y1="179" x2="132.441" y2="139.699" gradientUnits="userSpaceOnUse">
<stop stop-color="#FFF0F8"/>
<stop offset="0.413916" stop-color="#FEC6EF"/>
<stop offset="1" stop-color="#FFF0F8"/>
</linearGradient>
<linearGradient id="paint3_linear_3168_7008" x1="227.145" y1="160.303" x2="189.388" y2="147.806" gradientUnits="userSpaceOnUse">
<stop stop-color="#FFF0F8"/>
<stop offset="0.413916" stop-color="#FEC6EF"/>
<stop offset="1" stop-color="#FFF0F8"/>
</linearGradient>
<linearGradient id="paint4_linear_3168_7008" x1="111.854" y1="105.115" x2="34.4622" y2="72.8759" gradientUnits="userSpaceOnUse">
<stop stop-color="#FFF0F8"/>
<stop offset="0.413916" stop-color="#FFF0F8"/>
<stop offset="1" stop-color="#FFF0F8"/>
</linearGradient>
<linearGradient id="paint5_linear_3168_7008" x1="122.383" y1="85.914" x2="78.4288" y2="42.48" gradientUnits="userSpaceOnUse">
<stop stop-color="#FFF0F8"/>
<stop offset="0.413916" stop-color="#FFF0F8"/>
<stop offset="1" stop-color="#FFF0F8"/>
</linearGradient>
<linearGradient id="paint6_linear_3168_7008" x1="158.59" y1="71.4139" x2="122.332" y2="40.4086" gradientUnits="userSpaceOnUse">
<stop stop-color="#FFF0F8"/>
<stop offset="0.413916" stop-color="#FFF0F8"/>
<stop offset="1" stop-color="#FFF0F8"/>
</linearGradient>
<linearGradient id="paint7_linear_3168_7008" x1="190.905" y1="71.9645" x2="154.185" y2="43.6777" gradientUnits="userSpaceOnUse">
<stop stop-color="#FFF0F8"/>
<stop offset="0.413916" stop-color="#FFF0F8"/>
<stop offset="1" stop-color="#FFF0F8"/>
</linearGradient>
</defs>
</svg>
