<svg width="1002" height="149" viewBox="0 0 1002 149" fill="none" xmlns="http://www.w3.org/2000/svg">
<g filter="url(#filter0_d_3157_4657)">
<mask id="path-1-outside-1_3157_4657" maskUnits="userSpaceOnUse" x="35" y="25" width="932" height="80" fill="black">
<rect fill="white" x="35" y="25" width="932" height="80"/>
<path d="M86 36.22L83.84 37.57L86.09 37.93L86.54 50.62L74.12 52.24L74.21 54.58L70.61 55.93L74.21 55.75L75.47 94.9H56.3L55.49 75.55L58.01 74.65L55.49 74.2L54.59 52.42L40.64 51.61L40.73 46.66L44.6 46.12L40.73 45.31L40.91 33.16L85.91 32.35L86 36.22ZM132.708 50.53L130.098 51.25L132.708 52.15L131.628 91.75L114.078 94.09V66.73L107.958 66.82L108.858 94.09H90.2279L89.2379 72.67L91.4879 71.59L89.1479 70.6L87.2579 30.82H108.048L107.778 47.56L102.468 48.28L107.778 49.27L107.508 56.38L114.348 56.92L112.188 31.81L133.158 32.8L132.708 50.53ZM182.479 81.49L179.779 82.66L182.659 83.47L183.649 92.38L158.719 94.18L137.569 90.76L137.389 82.66L138.559 82.03L137.389 81.67L136.849 59.08L141.619 58.18L136.669 57.01L136.219 38.29L159.889 32.8L181.489 34.69L181.219 42.34L176.089 43.42L181.129 43.69L180.769 50.8L156.739 51.25L156.829 54.58L175.909 53.5L176.899 70.6L157.279 72.4L157.549 75.46L181.669 73.57L182.479 81.49ZM239.263 79.33L243.313 65.02L238.093 47.74H232.963L234.313 62.23L230.083 63.58L234.403 63.85L235.663 77.53L239.263 79.33ZM257.803 48.91L261.493 82.3L249.973 88.96H244.393L248.353 90.04L240.703 94.36L215.953 91.39L215.773 46.39L217.933 45.22L215.773 44.23V37.21L233.413 30.82L256.993 41.98L257.713 47.92L254.203 49.27L257.803 48.91ZM282.67 77.17L294.55 75.37L289.69 49.09L281.59 49L281.95 58.18L278.71 58.72L281.95 59.53L282.67 77.17ZM309.13 50.53L304.27 52.42L309.31 51.97L310.66 84.82L302.29 88.24L294.55 88.87L299.05 89.59L288.07 94.09L265.66 87.07L264.4 71.41L269.26 70.69L264.31 69.79L262.06 42.43L287.62 31.81L308.68 39.55L309.13 50.53ZM360.753 82.12L356.793 82.48L360.483 83.56L358.323 94.81L317.733 94.45L316.743 88.24L318.993 87.34L316.473 86.35L313.233 64.57V41.62L318.993 41.17L313.233 40V35.23L335.643 30.37L358.683 33.88L355.983 51.07L338.793 49.81L332.853 52.87L333.303 61.87L329.163 63.31H333.393L334.293 78.07L343.293 79.69L343.743 61.24L359.403 60.07L361.023 80.41L360.753 82.12ZM409.589 81.49L406.889 82.66L409.769 83.47L410.759 92.38L385.829 94.18L364.679 90.76L364.499 82.66L365.669 82.03L364.499 81.67L363.959 59.08L368.729 58.18L363.779 57.01L363.329 38.29L386.999 32.8L408.599 34.69L408.329 42.34L403.199 43.42L408.239 43.69L407.879 50.8L383.849 51.25L383.939 54.58L403.019 53.5L404.009 70.6L384.389 72.4L384.659 75.46L408.779 73.57L409.589 81.49ZM461.242 82.66L470.512 81.94L468.262 69.79L461.242 68.26V73.48L459.082 73.84L461.242 74.47V82.66ZM461.242 43.69V52.6L467.542 51.43L466.372 43.96L461.242 43.69ZM485.632 87.16L479.242 87.52L485.542 88.6L485.272 94.99L443.512 94.09L443.422 85.18L449.182 84.82L443.242 83.92L442.972 53.95L445.942 53.23L442.882 52.24L442.702 35.95L464.392 32.26L481.852 36.22L481.762 44.68L478.702 45.49L481.762 45.85L481.582 54.85L475.642 58.63L486.712 64.93L485.632 87.16ZM535.009 81.49L532.309 82.66L535.189 83.47L536.179 92.38L511.249 94.18L490.099 90.76L489.919 82.66L491.089 82.03L489.919 81.67L489.379 59.08L494.149 58.18L489.199 57.01L488.749 38.29L512.419 32.8L534.019 34.69L533.749 42.34L528.619 43.42L533.659 43.69L533.299 50.8L509.269 51.25L509.359 54.58L528.439 53.5L529.429 70.6L509.809 72.4L510.079 75.46L534.199 73.57L535.009 81.49ZM581.345 36.58L575.855 37.12L581.435 37.84L582.695 49.54L558.575 50.8L558.845 54.76L577.565 54.04L577.835 63.31L575.855 63.94L577.835 64.66L578.015 69.79L558.305 70.51L558.395 79.78L553.175 80.5L558.395 81.4L558.575 94H539.675L538.955 62.41L543.185 61.6L538.775 61.06L538.235 36.13L561.635 31.45L581.165 34.96L581.345 36.58ZM603.734 77.17L615.614 75.37L610.754 49.09L602.654 49L603.014 58.18L599.774 58.72L603.014 59.53L603.734 77.17ZM630.194 50.53L625.334 52.42L630.374 51.97L631.724 84.82L623.354 88.24L615.614 88.87L620.114 89.59L609.134 94.09L586.724 87.07L585.464 71.41L590.324 70.69L585.374 69.79L583.124 42.43L608.684 31.81L629.744 39.55L630.194 50.53ZM661.658 58.18V43.6H653.108L654.188 52.96L652.298 54.22L654.458 54.58L655.088 60.43L661.658 58.18ZM673.088 68.62L682.178 80.86L685.508 90.67L667.148 98.41L654.818 73.84L654.908 84.46L650.138 85.45L654.998 86.26L655.088 94.09L636.638 94.36L634.208 37.84L639.608 36.94L634.118 36.04L634.028 33.34L646.898 30.82L678.758 32.26L679.568 56.2L675.878 57.1L679.568 57.64L679.748 62.41L673.088 68.62ZM732.938 81.49L730.238 82.66L733.118 83.47L734.108 92.38L709.178 94.18L688.028 90.76L687.848 82.66L689.018 82.03L687.848 81.67L687.308 59.08L692.078 58.18L687.128 57.01L686.678 38.29L710.348 32.8L731.948 34.69L731.678 42.34L726.548 43.42L731.588 43.69L731.228 50.8L707.198 51.25L707.288 54.58L726.368 53.5L727.358 70.6L707.738 72.4L708.008 75.46L732.128 73.57L732.938 81.49ZM789.722 79.33L793.772 65.02L788.552 47.74H783.422L784.772 62.23L780.542 63.58L784.862 63.85L786.122 77.53L789.722 79.33ZM808.262 48.91L811.952 82.3L800.432 88.96H794.852L798.812 90.04L791.162 94.36L766.412 91.39L766.232 46.39L768.392 45.22L766.232 44.23V37.21L783.872 30.82L807.452 41.98L808.172 47.92L804.662 49.27L808.262 48.91ZM833.129 77.17L845.009 75.37L840.149 49.09L832.049 49L832.409 58.18L829.169 58.72L832.409 59.53L833.129 77.17ZM859.589 50.53L854.729 52.42L859.769 51.97L861.119 84.82L852.749 88.24L845.009 88.87L849.509 89.59L838.529 94.09L816.119 87.07L814.859 71.41L819.719 70.69L814.769 69.79L812.519 42.43L838.079 31.81L859.139 39.55L859.589 50.53ZM911.212 82.12L907.252 82.48L910.942 83.56L908.782 94.81L868.192 94.45L867.202 88.24L869.452 87.34L866.932 86.35L863.692 64.57V41.62L869.452 41.17L863.692 40V35.23L886.102 30.37L909.142 33.88L906.442 51.07L889.252 49.81L883.312 52.87L883.762 61.87L879.622 63.31H883.852L884.752 78.07L893.752 79.69L894.202 61.24L909.862 60.07L911.482 80.41L911.212 82.12ZM960.048 81.49L957.348 82.66L960.228 83.47L961.218 92.38L936.288 94.18L915.138 90.76L914.958 82.66L916.128 82.03L914.958 81.67L914.418 59.08L919.188 58.18L914.238 57.01L913.788 38.29L937.458 32.8L959.058 34.69L958.788 42.34L953.658 43.42L958.698 43.69L958.338 50.8L934.308 51.25L934.398 54.58L953.478 53.5L954.468 70.6L934.848 72.4L935.118 75.46L959.238 73.57L960.048 81.49Z"/>
</mask>
<path d="M86 36.22L83.84 37.57L86.09 37.93L86.54 50.62L74.12 52.24L74.21 54.58L70.61 55.93L74.21 55.75L75.47 94.9H56.3L55.49 75.55L58.01 74.65L55.49 74.2L54.59 52.42L40.64 51.61L40.73 46.66L44.6 46.12L40.73 45.31L40.91 33.16L85.91 32.35L86 36.22ZM132.708 50.53L130.098 51.25L132.708 52.15L131.628 91.75L114.078 94.09V66.73L107.958 66.82L108.858 94.09H90.2279L89.2379 72.67L91.4879 71.59L89.1479 70.6L87.2579 30.82H108.048L107.778 47.56L102.468 48.28L107.778 49.27L107.508 56.38L114.348 56.92L112.188 31.81L133.158 32.8L132.708 50.53ZM182.479 81.49L179.779 82.66L182.659 83.47L183.649 92.38L158.719 94.18L137.569 90.76L137.389 82.66L138.559 82.03L137.389 81.67L136.849 59.08L141.619 58.18L136.669 57.01L136.219 38.29L159.889 32.8L181.489 34.69L181.219 42.34L176.089 43.42L181.129 43.69L180.769 50.8L156.739 51.25L156.829 54.58L175.909 53.5L176.899 70.6L157.279 72.4L157.549 75.46L181.669 73.57L182.479 81.49ZM239.263 79.33L243.313 65.02L238.093 47.74H232.963L234.313 62.23L230.083 63.58L234.403 63.85L235.663 77.53L239.263 79.33ZM257.803 48.91L261.493 82.3L249.973 88.96H244.393L248.353 90.04L240.703 94.36L215.953 91.39L215.773 46.39L217.933 45.22L215.773 44.23V37.21L233.413 30.82L256.993 41.98L257.713 47.92L254.203 49.27L257.803 48.91ZM282.67 77.17L294.55 75.37L289.69 49.09L281.59 49L281.95 58.18L278.71 58.72L281.95 59.53L282.67 77.17ZM309.13 50.53L304.27 52.42L309.31 51.97L310.66 84.82L302.29 88.24L294.55 88.87L299.05 89.59L288.07 94.09L265.66 87.07L264.4 71.41L269.26 70.69L264.31 69.79L262.06 42.43L287.62 31.81L308.68 39.55L309.13 50.53ZM360.753 82.12L356.793 82.48L360.483 83.56L358.323 94.81L317.733 94.45L316.743 88.24L318.993 87.34L316.473 86.35L313.233 64.57V41.62L318.993 41.17L313.233 40V35.23L335.643 30.37L358.683 33.88L355.983 51.07L338.793 49.81L332.853 52.87L333.303 61.87L329.163 63.31H333.393L334.293 78.07L343.293 79.69L343.743 61.24L359.403 60.07L361.023 80.41L360.753 82.12ZM409.589 81.49L406.889 82.66L409.769 83.47L410.759 92.38L385.829 94.18L364.679 90.76L364.499 82.66L365.669 82.03L364.499 81.67L363.959 59.08L368.729 58.18L363.779 57.01L363.329 38.29L386.999 32.8L408.599 34.69L408.329 42.34L403.199 43.42L408.239 43.69L407.879 50.8L383.849 51.25L383.939 54.58L403.019 53.5L404.009 70.6L384.389 72.4L384.659 75.46L408.779 73.57L409.589 81.49ZM461.242 82.66L470.512 81.94L468.262 69.79L461.242 68.26V73.48L459.082 73.84L461.242 74.47V82.66ZM461.242 43.69V52.6L467.542 51.43L466.372 43.96L461.242 43.69ZM485.632 87.16L479.242 87.52L485.542 88.6L485.272 94.99L443.512 94.09L443.422 85.18L449.182 84.82L443.242 83.92L442.972 53.95L445.942 53.23L442.882 52.24L442.702 35.95L464.392 32.26L481.852 36.22L481.762 44.68L478.702 45.49L481.762 45.85L481.582 54.85L475.642 58.63L486.712 64.93L485.632 87.16ZM535.009 81.49L532.309 82.66L535.189 83.47L536.179 92.38L511.249 94.18L490.099 90.76L489.919 82.66L491.089 82.03L489.919 81.67L489.379 59.08L494.149 58.18L489.199 57.01L488.749 38.29L512.419 32.8L534.019 34.69L533.749 42.34L528.619 43.42L533.659 43.69L533.299 50.8L509.269 51.25L509.359 54.58L528.439 53.5L529.429 70.6L509.809 72.4L510.079 75.46L534.199 73.57L535.009 81.49ZM581.345 36.58L575.855 37.12L581.435 37.84L582.695 49.54L558.575 50.8L558.845 54.76L577.565 54.04L577.835 63.31L575.855 63.94L577.835 64.66L578.015 69.79L558.305 70.51L558.395 79.78L553.175 80.5L558.395 81.4L558.575 94H539.675L538.955 62.41L543.185 61.6L538.775 61.06L538.235 36.13L561.635 31.45L581.165 34.96L581.345 36.58ZM603.734 77.17L615.614 75.37L610.754 49.09L602.654 49L603.014 58.18L599.774 58.72L603.014 59.53L603.734 77.17ZM630.194 50.53L625.334 52.42L630.374 51.97L631.724 84.82L623.354 88.24L615.614 88.87L620.114 89.59L609.134 94.09L586.724 87.07L585.464 71.41L590.324 70.69L585.374 69.79L583.124 42.43L608.684 31.81L629.744 39.55L630.194 50.53ZM661.658 58.18V43.6H653.108L654.188 52.96L652.298 54.22L654.458 54.58L655.088 60.43L661.658 58.18ZM673.088 68.62L682.178 80.86L685.508 90.67L667.148 98.41L654.818 73.84L654.908 84.46L650.138 85.45L654.998 86.26L655.088 94.09L636.638 94.36L634.208 37.84L639.608 36.94L634.118 36.04L634.028 33.34L646.898 30.82L678.758 32.26L679.568 56.2L675.878 57.1L679.568 57.64L679.748 62.41L673.088 68.62ZM732.938 81.49L730.238 82.66L733.118 83.47L734.108 92.38L709.178 94.18L688.028 90.76L687.848 82.66L689.018 82.03L687.848 81.67L687.308 59.08L692.078 58.18L687.128 57.01L686.678 38.29L710.348 32.8L731.948 34.69L731.678 42.34L726.548 43.42L731.588 43.69L731.228 50.8L707.198 51.25L707.288 54.58L726.368 53.5L727.358 70.6L707.738 72.4L708.008 75.46L732.128 73.57L732.938 81.49ZM789.722 79.33L793.772 65.02L788.552 47.74H783.422L784.772 62.23L780.542 63.58L784.862 63.85L786.122 77.53L789.722 79.33ZM808.262 48.91L811.952 82.3L800.432 88.96H794.852L798.812 90.04L791.162 94.36L766.412 91.39L766.232 46.39L768.392 45.22L766.232 44.23V37.21L783.872 30.82L807.452 41.98L808.172 47.92L804.662 49.27L808.262 48.91ZM833.129 77.17L845.009 75.37L840.149 49.09L832.049 49L832.409 58.18L829.169 58.72L832.409 59.53L833.129 77.17ZM859.589 50.53L854.729 52.42L859.769 51.97L861.119 84.82L852.749 88.24L845.009 88.87L849.509 89.59L838.529 94.09L816.119 87.07L814.859 71.41L819.719 70.69L814.769 69.79L812.519 42.43L838.079 31.81L859.139 39.55L859.589 50.53ZM911.212 82.12L907.252 82.48L910.942 83.56L908.782 94.81L868.192 94.45L867.202 88.24L869.452 87.34L866.932 86.35L863.692 64.57V41.62L869.452 41.17L863.692 40V35.23L886.102 30.37L909.142 33.88L906.442 51.07L889.252 49.81L883.312 52.87L883.762 61.87L879.622 63.31H883.852L884.752 78.07L893.752 79.69L894.202 61.24L909.862 60.07L911.482 80.41L911.212 82.12ZM960.048 81.49L957.348 82.66L960.228 83.47L961.218 92.38L936.288 94.18L915.138 90.76L914.958 82.66L916.128 82.03L914.958 81.67L914.418 59.08L919.188 58.18L914.238 57.01L913.788 38.29L937.458 32.8L959.058 34.69L958.788 42.34L953.658 43.42L958.698 43.69L958.338 50.8L934.308 51.25L934.398 54.58L953.478 53.5L954.468 70.6L934.848 72.4L935.118 75.46L959.238 73.57L960.048 81.49Z" fill="url(#paint0_linear_3157_4657)"/>
<path d="M86 36.22L88.65 40.46L91.0649 38.9507L90.9986 36.1038L86 36.22ZM83.84 37.57L81.19 33.33L69.8784 40.3997L83.05 42.5072L83.84 37.57ZM86.09 37.93L91.0869 37.7528L90.9411 33.6426L86.88 32.9928L86.09 37.93ZM86.54 50.62L87.1867 55.578L91.6981 54.9896L91.5369 50.4428L86.54 50.62ZM74.12 52.24L73.4733 47.282L68.9483 47.8722L69.1237 52.4322L74.12 52.24ZM74.21 54.58L75.9656 59.2616L79.345 57.9944L79.2063 54.3878L74.21 54.58ZM70.61 55.93L68.8544 51.2484L70.8597 60.9238L70.61 55.93ZM74.21 55.75L79.2074 55.5892L79.0437 50.5021L73.9603 50.7562L74.21 55.75ZM75.47 94.9V99.9H80.6335L80.4674 94.7392L75.47 94.9ZM56.3 94.9L51.3044 95.1091L51.5049 99.9H56.3V94.9ZM55.49 75.55L53.8083 70.8413L50.3404 72.0798L50.4944 75.7591L55.49 75.55ZM58.01 74.65L59.6917 79.3587L77.4017 73.0337L58.889 69.7279L58.01 74.65ZM55.49 74.2L50.4943 74.4064L50.66 78.4166L54.611 79.1221L55.49 74.2ZM54.59 52.42L59.5857 52.2136L59.3988 47.6908L54.8798 47.4284L54.59 52.42ZM40.64 51.61L35.6408 51.5191L35.5535 56.3231L40.3502 56.6016L40.64 51.61ZM40.73 46.66L40.039 41.708L35.8085 42.2983L35.7308 46.5691L40.73 46.66ZM44.6 46.12L45.291 51.072L45.6243 41.226L44.6 46.12ZM40.73 45.31L35.7305 45.2359L35.6695 49.3592L39.7057 50.204L40.73 45.31ZM40.91 33.16L40.82 28.1608L35.9822 28.2479L35.9105 33.0859L40.91 33.16ZM85.91 32.35L90.9086 32.2337L90.793 27.2613L85.82 27.3508L85.91 32.35ZM83.35 31.98L81.19 33.33L86.49 41.81L88.65 40.46L83.35 31.98ZM83.05 42.5072L85.3001 42.8672L86.88 32.9928L84.63 32.6328L83.05 42.5072ZM81.0931 38.1072L81.5431 50.7972L91.5369 50.4428L91.0869 37.7528L81.0931 38.1072ZM85.8933 45.662L73.4733 47.282L74.7667 57.198L87.1867 55.578L85.8933 45.662ZM69.1237 52.4322L69.2137 54.7722L79.2063 54.3878L79.1163 52.0478L69.1237 52.4322ZM72.4544 49.8984L68.8544 51.2484L72.3656 60.6116L75.9656 59.2616L72.4544 49.8984ZM70.8597 60.9238L74.4597 60.7438L73.9603 50.7562L70.3603 50.9362L70.8597 60.9238ZM69.2126 55.9108L70.4726 95.0608L80.4674 94.7392L79.2074 55.5892L69.2126 55.9108ZM75.47 89.9H56.3V99.9H75.47V89.9ZM61.2956 94.6909L60.4856 75.3409L50.4944 75.7591L51.3044 95.1091L61.2956 94.6909ZM57.1717 80.2587L59.6917 79.3587L56.3283 69.9413L53.8083 70.8413L57.1717 80.2587ZM58.889 69.7279L56.369 69.2779L54.611 79.1221L57.131 79.5721L58.889 69.7279ZM60.4857 73.9936L59.5857 52.2136L49.5943 52.6264L50.4943 74.4064L60.4857 73.9936ZM54.8798 47.4284L40.9298 46.6184L40.3502 56.6016L54.3002 57.4116L54.8798 47.4284ZM45.6392 51.7009L45.7292 46.7509L35.7308 46.5691L35.6408 51.5191L45.6392 51.7009ZM41.421 51.612L45.291 51.072L43.909 41.168L40.039 41.708L41.421 51.612ZM45.6243 41.226L41.7543 40.416L39.7057 50.204L43.5757 51.014L45.6243 41.226ZM45.7295 45.3841L45.9095 33.2341L35.9105 33.0859L35.7305 45.2359L45.7295 45.3841ZM41 38.1592L86 37.3492L85.82 27.3508L40.82 28.1608L41 38.1592ZM80.9114 32.4662L81.0014 36.3362L90.9986 36.1038L90.9086 32.2337L80.9114 32.4662ZM132.708 50.53L134.038 55.35L137.612 54.3639L137.706 50.6569L132.708 50.53ZM130.098 51.25L128.768 46.43L113.22 50.7191L128.468 55.9769L130.098 51.25ZM132.708 52.15L137.706 52.2863L137.806 48.6191L134.338 47.4231L132.708 52.15ZM131.628 91.75L132.289 96.7061L136.51 96.1433L136.626 91.8863L131.628 91.75ZM114.078 94.09H109.078V99.8009L114.739 99.0461L114.078 94.09ZM114.078 66.73H119.078V61.6559L114.004 61.7305L114.078 66.73ZM107.958 66.82L107.884 61.8205L102.793 61.8954L102.961 66.9849L107.958 66.82ZM108.858 94.09V99.09H114.026L113.855 93.9251L108.858 94.09ZM90.2279 94.09L85.2332 94.3208L85.4536 99.09H90.2279V94.09ZM89.2379 72.67L87.0742 68.1624L84.0904 69.5946L84.2432 72.9008L89.2379 72.67ZM91.4879 71.59L93.6515 76.0976L103.641 71.3027L93.4361 66.9852L91.4879 71.59ZM89.1479 70.6L84.1535 70.8373L84.3028 73.9792L87.1997 75.2048L89.1479 70.6ZM87.2579 30.82V25.82H82.0147L82.2635 31.0573L87.2579 30.82ZM108.048 30.82L113.047 30.9006L113.129 25.82H108.048V30.82ZM107.778 47.56L108.45 52.5147L112.708 51.9373L112.777 47.6406L107.778 47.56ZM102.468 48.28L101.796 43.3253L101.551 53.1953L102.468 48.28ZM107.778 49.27L112.774 49.4597L112.938 45.1459L108.694 44.3547L107.778 49.27ZM107.508 56.38L102.511 56.1903L102.329 60.9867L107.114 61.3645L107.508 56.38ZM114.348 56.92L113.954 61.9045L119.835 62.3688L119.329 56.4915L114.348 56.92ZM112.188 31.81L112.424 26.8156L106.717 26.5461L107.206 32.2385L112.188 31.81ZM133.158 32.8L138.156 32.9269L138.28 28.0363L133.394 27.8056L133.158 32.8ZM131.378 45.71L128.768 46.43L131.428 56.07L134.038 55.35L131.378 45.71ZM128.468 55.9769L131.078 56.8769L134.338 47.4231L131.728 46.5231L128.468 55.9769ZM127.71 52.0137L126.63 91.6137L136.626 91.8863L137.706 52.2863L127.71 52.0137ZM130.967 86.7939L113.417 89.1339L114.739 99.0461L132.289 96.7061L130.967 86.7939ZM119.078 94.09V66.73H109.078V94.09H119.078ZM114.004 61.7305L107.884 61.8205L108.031 71.8195L114.151 71.7295L114.004 61.7305ZM102.961 66.9849L103.861 94.2549L113.855 93.9251L112.955 66.6551L102.961 66.9849ZM108.858 89.09H90.2279V99.09H108.858V89.09ZM95.2226 93.8592L94.2326 72.4392L84.2432 72.9008L85.2332 94.3208L95.2226 93.8592ZM91.4015 77.1776L93.6515 76.0976L89.3242 67.0824L87.0742 68.1624L91.4015 77.1776ZM93.4361 66.9852L91.0961 65.9952L87.1997 75.2048L89.5397 76.1948L93.4361 66.9852ZM94.1423 70.3627L92.2523 30.5827L82.2635 31.0573L84.1535 70.8373L94.1423 70.3627ZM87.2579 35.82H108.048V25.82H87.2579V35.82ZM103.049 30.7394L102.779 47.4794L112.777 47.6406L113.047 30.9006L103.049 30.7394ZM107.106 42.6053L101.796 43.3253L103.14 53.2347L108.45 52.5147L107.106 42.6053ZM101.551 53.1953L106.861 54.1853L108.694 44.3547L103.384 43.3647L101.551 53.1953ZM102.781 49.0803L102.511 56.1903L112.504 56.5697L112.774 49.4597L102.781 49.0803ZM107.114 61.3645L113.954 61.9045L114.741 51.9355L107.901 51.3955L107.114 61.3645ZM119.329 56.4915L117.169 31.3815L107.206 32.2385L109.366 57.3485L119.329 56.4915ZM111.952 36.8044L132.922 37.7944L133.394 27.8056L112.424 26.8156L111.952 36.8044ZM128.16 32.6731L127.71 50.4031L137.706 50.6569L138.156 32.9269L128.16 32.6731ZM182.479 81.49L184.467 86.0778L187.826 84.6225L187.453 80.9813L182.479 81.49ZM179.779 82.66L177.791 78.0722L164.885 83.665L178.426 87.4733L179.779 82.66ZM182.659 83.47L187.629 82.9178L187.257 79.569L184.013 78.6567L182.659 83.47ZM183.649 92.38L184.009 97.367L189.193 96.9928L188.619 91.8278L183.649 92.38ZM158.719 94.18L157.921 99.1159L158.497 99.209L159.079 99.167L158.719 94.18ZM137.569 90.76L132.571 90.8711L132.663 95.0316L136.771 95.6959L137.569 90.76ZM137.389 82.66L135.019 78.2576L132.322 79.7095L132.391 82.7711L137.389 82.66ZM138.559 82.03L140.93 86.4324L151.453 80.766L140.03 77.2511L138.559 82.03ZM137.389 81.67L132.391 81.7895L132.477 85.3898L135.919 86.4489L137.389 81.67ZM136.849 59.08L135.922 54.1667L131.749 54.9541L131.851 59.1995L136.849 59.08ZM141.619 58.18L142.546 63.0933L142.769 53.3141L141.619 58.18ZM136.669 57.01L131.671 57.1302L131.763 60.9882L135.519 61.8759L136.669 57.01ZM136.219 38.29L135.09 33.4193L131.123 34.3393L131.221 38.4102L136.219 38.29ZM159.889 32.8L160.325 27.819L159.534 27.7498L158.76 27.9293L159.889 32.8ZM181.489 34.69L186.486 34.8664L186.654 30.1228L181.925 29.709L181.489 34.69ZM181.219 42.34L182.249 47.2327L186.078 46.4267L186.216 42.5164L181.219 42.34ZM176.089 43.42L175.059 38.5272L175.822 48.4128L176.089 43.42ZM181.129 43.69L186.123 43.9428L186.375 38.9639L181.397 38.6972L181.129 43.69ZM180.769 50.8L180.863 55.7991L185.527 55.7118L185.763 51.0528L180.769 50.8ZM156.739 51.25L156.646 46.2509L151.605 46.3453L151.741 51.3851L156.739 51.25ZM156.829 54.58L151.831 54.7151L151.97 59.863L157.112 59.572L156.829 54.58ZM175.909 53.5L180.901 53.211L180.612 48.2258L175.627 48.508L175.909 53.5ZM176.899 70.6L177.356 75.5791L182.17 75.1374L181.891 70.311L176.899 70.6ZM157.279 72.4L156.822 67.4209L151.861 67.8761L152.299 72.8395L157.279 72.4ZM157.549 75.46L152.569 75.8995L153.004 80.8315L157.94 80.4447L157.549 75.46ZM181.669 73.57L186.643 73.0613L186.147 68.2038L181.279 68.5853L181.669 73.57ZM180.491 76.9022L177.791 78.0722L181.767 87.2478L184.467 86.0778L180.491 76.9022ZM178.426 87.4733L181.306 88.2833L184.013 78.6567L181.133 77.8467L178.426 87.4733ZM177.69 84.0222L178.68 92.9322L188.619 91.8278L187.629 82.9178L177.69 84.0222ZM183.289 87.393L158.359 89.193L159.079 99.167L184.009 97.367L183.289 87.393ZM159.517 89.2441L138.367 85.8241L136.771 95.6959L157.921 99.1159L159.517 89.2441ZM142.568 90.6489L142.388 82.5489L132.391 82.7711L132.571 90.8711L142.568 90.6489ZM139.76 87.0624L140.93 86.4324L136.189 77.6276L135.019 78.2576L139.76 87.0624ZM140.03 77.2511L138.86 76.8911L135.919 86.4489L137.089 86.8089L140.03 77.2511ZM142.388 81.5505L141.848 58.9605L131.851 59.1995L132.391 81.7895L142.388 81.5505ZM137.776 63.9933L142.546 63.0933L140.692 53.2667L135.922 54.1667L137.776 63.9933ZM142.769 53.3141L137.819 52.1441L135.519 61.8759L140.469 63.0459L142.769 53.3141ZM141.668 56.8898L141.218 38.1698L131.221 38.4102L131.671 57.1302L141.668 56.8898ZM137.349 43.1607L161.019 37.6707L158.76 27.9293L135.09 33.4193L137.349 43.1607ZM159.453 37.781L181.053 39.671L181.925 29.709L160.325 27.819L159.453 37.781ZM176.492 34.5136L176.222 42.1636L186.216 42.5164L186.486 34.8664L176.492 34.5136ZM180.189 37.4473L175.059 38.5272L177.119 48.3127L182.249 47.2327L180.189 37.4473ZM175.822 48.4128L180.862 48.6828L181.397 38.6972L176.357 38.4272L175.822 48.4128ZM176.136 43.4372L175.776 50.5472L185.763 51.0528L186.123 43.9428L176.136 43.4372ZM180.676 45.8009L156.646 46.2509L156.833 56.2491L180.863 55.7991L180.676 45.8009ZM151.741 51.3851L151.831 54.7151L161.827 54.4449L161.737 51.1149L151.741 51.3851ZM157.112 59.572L176.192 58.492L175.627 48.508L156.547 49.588L157.112 59.572ZM170.918 53.789L171.908 70.889L181.891 70.311L180.901 53.211L170.918 53.789ZM176.443 65.6209L156.822 67.4209L157.736 77.3791L177.356 75.5791L176.443 65.6209ZM152.299 72.8395L152.569 75.8995L162.53 75.0205L162.26 71.9605L152.299 72.8395ZM157.94 80.4447L182.06 78.5547L181.279 68.5853L157.159 70.4753L157.94 80.4447ZM176.695 74.0787L177.505 81.9987L187.453 80.9813L186.643 73.0613L176.695 74.0787ZM239.263 79.33L237.027 83.8021L242.429 86.5033L244.074 80.6916L239.263 79.33ZM243.313 65.02L248.124 66.3816L248.522 64.9743L248.099 63.5741L243.313 65.02ZM238.093 47.74L242.879 46.2941L241.806 42.74H238.093V47.74ZM232.963 47.74V42.74H227.475L227.985 48.2038L232.963 47.74ZM234.313 62.23L235.833 66.9933L239.664 65.7705L239.291 61.7662L234.313 62.23ZM230.083 63.58L228.563 58.8167L229.771 68.5703L230.083 63.58ZM234.403 63.85L239.382 63.3914L238.989 59.1269L234.715 58.8597L234.403 63.85ZM235.663 77.53L230.684 77.9886L230.939 80.7583L233.427 82.0021L235.663 77.53ZM257.803 48.91L262.773 48.3608L262.229 43.4424L257.305 43.9348L257.803 48.91ZM261.493 82.3L263.995 86.6287L266.821 84.995L266.463 81.7508L261.493 82.3ZM249.973 88.96V93.96H251.314L252.475 93.2887L249.973 88.96ZM244.393 88.96V83.96L243.077 93.7838L244.393 88.96ZM248.353 90.04L250.812 94.3938L261.399 88.4153L249.669 85.2162L248.353 90.04ZM240.703 94.36L240.107 99.3244L241.734 99.5197L243.162 98.7138L240.703 94.36ZM215.953 91.39L210.953 91.41L210.971 95.828L215.357 96.3544L215.953 91.39ZM215.773 46.39L213.392 41.9935L210.761 43.4184L210.773 46.41L215.773 46.39ZM217.933 45.22L220.314 49.6165L229.12 44.847L220.016 40.6747L217.933 45.22ZM215.773 44.23H210.773V47.4385L213.69 48.7753L215.773 44.23ZM215.773 37.21L214.07 32.5089L210.773 33.7033V37.21H215.773ZM233.413 30.82L235.552 26.3006L233.669 25.4094L231.71 26.1189L233.413 30.82ZM256.993 41.98L261.957 41.3783L261.625 38.6404L259.132 37.4606L256.993 41.98ZM257.713 47.92L259.508 52.5867L263.146 51.1876L262.677 47.3183L257.713 47.92ZM254.203 49.27L252.408 44.6033L254.7 54.2452L254.203 49.27ZM244.074 80.6916L248.124 66.3816L238.502 63.6584L234.452 77.9684L244.074 80.6916ZM248.099 63.5741L242.879 46.2941L233.307 49.1859L238.527 66.4659L248.099 63.5741ZM238.093 42.74H232.963V52.74H238.093V42.74ZM227.985 48.2038L229.335 62.6938L239.291 61.7662L237.941 47.2762L227.985 48.2038ZM232.793 57.4667L228.563 58.8167L231.603 68.3433L235.833 66.9933L232.793 57.4667ZM229.771 68.5703L234.091 68.8403L234.715 58.8597L230.395 58.5897L229.771 68.5703ZM229.424 64.3086L230.684 77.9886L240.642 77.0714L239.382 63.3914L229.424 64.3086ZM233.427 82.0021L237.027 83.8021L241.499 74.8579L237.899 73.0579L233.427 82.0021ZM252.833 49.4592L256.523 82.8492L266.463 81.7508L262.773 48.3608L252.833 49.4592ZM258.99 77.9713L247.47 84.6313L252.475 93.2887L263.995 86.6287L258.99 77.9713ZM249.973 83.96H244.393V93.96H249.973V83.96ZM243.077 93.7838L247.037 94.8638L249.669 85.2162L245.709 84.1362L243.077 93.7838ZM245.894 85.6862L238.244 90.0062L243.162 98.7138L250.812 94.3938L245.894 85.6862ZM241.299 89.3956L216.549 86.4256L215.357 96.3544L240.107 99.3244L241.299 89.3956ZM220.953 91.37L220.773 46.37L210.773 46.41L210.953 91.41L220.953 91.37ZM218.154 50.7865L220.314 49.6165L215.552 40.8235L213.392 41.9935L218.154 50.7865ZM220.016 40.6747L217.856 39.6847L213.69 48.7753L215.85 49.7653L220.016 40.6747ZM220.773 44.23V37.21H210.773V44.23H220.773ZM217.476 41.9111L235.116 35.5211L231.71 26.1189L214.07 32.5089L217.476 41.9111ZM231.274 35.3394L254.854 46.4994L259.132 37.4606L235.552 26.3006L231.274 35.3394ZM252.029 42.5817L252.749 48.5217L262.677 47.3183L261.957 41.3783L252.029 42.5817ZM255.918 43.2533L252.408 44.6033L255.998 53.9367L259.508 52.5867L255.918 43.2533ZM254.7 54.2452L258.3 53.8852L257.305 43.9348L253.705 44.2948L254.7 54.2452ZM282.67 77.17L277.674 77.3739L277.901 82.9495L283.419 82.1136L282.67 77.17ZM294.55 75.37L295.299 80.3136L300.406 79.5398L299.466 74.4608L294.55 75.37ZM289.69 49.09L294.606 48.1808L293.858 44.136L289.745 44.0903L289.69 49.09ZM281.59 49L281.645 44.0003L276.387 43.9419L276.594 49.1959L281.59 49ZM281.95 58.18L282.772 63.112L287.119 62.3875L286.946 57.9841L281.95 58.18ZM278.71 58.72L277.888 53.788L277.497 63.5707L278.71 58.72ZM281.95 59.53L286.946 59.3261L286.793 55.5869L283.162 54.6793L281.95 59.53ZM309.13 50.53L310.942 55.19L314.272 53.8951L314.125 50.3253L309.13 50.53ZM304.27 52.42L302.457 47.76L304.714 57.4002L304.27 52.42ZM309.31 51.97L314.305 51.7647L314.09 46.5233L308.865 46.9898L309.31 51.97ZM310.66 84.82L312.551 89.4485L315.8 88.1211L315.655 84.6147L310.66 84.82ZM302.29 88.24L302.695 93.2235L303.466 93.1608L304.181 92.8685L302.29 88.24ZM294.55 88.87L294.144 83.8865L293.76 93.8072L294.55 88.87ZM299.05 89.59L300.946 94.2165L317.419 87.4654L299.84 84.6528L299.05 89.59ZM288.07 94.09L286.575 98.8614L288.297 99.4006L289.966 98.7165L288.07 94.09ZM265.66 87.07L260.676 87.471L260.946 90.8331L264.165 91.8414L265.66 87.07ZM264.4 71.41L263.667 66.464L259.041 67.1493L259.416 71.811L264.4 71.41ZM269.26 70.69L269.992 75.636L270.154 65.7707L269.26 70.69ZM264.31 69.79L259.327 70.1998L259.641 74.0231L263.415 74.7093L264.31 69.79ZM262.06 42.43L260.141 37.8127L256.778 39.2101L257.077 42.8398L262.06 42.43ZM287.62 31.81L289.344 27.1169L287.508 26.442L285.701 27.1927L287.62 31.81ZM308.68 39.55L313.675 39.3453L313.539 36.0088L310.404 34.8569L308.68 39.55ZM283.419 82.1136L295.299 80.3136L293.801 70.4264L281.921 72.2264L283.419 82.1136ZM299.466 74.4608L294.606 48.1808L284.773 49.9992L289.633 76.2792L299.466 74.4608ZM289.745 44.0903L281.645 44.0003L281.534 53.9997L289.634 54.0897L289.745 44.0903ZM276.594 49.1959L276.954 58.3759L286.946 57.9841L286.586 48.8041L276.594 49.1959ZM281.128 53.248L277.888 53.788L279.532 63.652L282.772 63.112L281.128 53.248ZM277.497 63.5707L280.737 64.3807L283.162 54.6793L279.922 53.8693L277.497 63.5707ZM276.954 59.7339L277.674 77.3739L287.666 76.9661L286.946 59.3261L276.954 59.7339ZM307.317 45.87L302.457 47.76L306.082 57.08L310.942 55.19L307.317 45.87ZM304.714 57.4002L309.754 56.9502L308.865 46.9898L303.825 47.4398L304.714 57.4002ZM304.314 52.1753L305.664 85.0253L315.655 84.6147L314.305 51.7647L304.314 52.1753ZM308.768 80.1915L300.398 83.6115L304.181 92.8685L312.551 89.4485L308.768 80.1915ZM301.884 83.2565L294.144 83.8865L294.955 93.8535L302.695 93.2235L301.884 83.2565ZM293.76 93.8072L298.26 94.5272L299.84 84.6528L295.34 83.9328L293.76 93.8072ZM297.154 84.9635L286.174 89.4635L289.966 98.7165L300.946 94.2165L297.154 84.9635ZM289.564 89.3186L267.154 82.2986L264.165 91.8414L286.575 98.8614L289.564 89.3186ZM270.644 86.669L269.384 71.009L259.416 71.811L260.676 87.471L270.644 86.669ZM265.132 76.356L269.992 75.636L268.527 65.744L263.667 66.464L265.132 76.356ZM270.154 65.7707L265.204 64.8706L263.415 74.7093L268.365 75.6093L270.154 65.7707ZM269.293 69.3802L267.043 42.0202L257.077 42.8398L259.327 70.1998L269.293 69.3802ZM263.978 47.0473L289.538 36.4273L285.701 27.1927L260.141 37.8127L263.978 47.0473ZM285.895 36.5031L306.955 44.2431L310.404 34.8569L289.344 27.1169L285.895 36.5031ZM303.684 39.7547L304.134 50.7347L314.125 50.3253L313.675 39.3453L303.684 39.7547ZM360.753 82.12L361.206 87.0995L365.085 86.7469L365.692 82.8998L360.753 82.12ZM356.793 82.48L356.34 77.5005L355.389 87.2787L356.793 82.48ZM360.483 83.56L365.393 84.5028L366.251 80.0383L361.888 78.7613L360.483 83.56ZM358.323 94.81L358.279 99.8098L362.447 99.8468L363.233 95.7528L358.323 94.81ZM317.733 94.45L312.795 95.2372L313.461 99.4123L317.689 99.4498L317.733 94.45ZM316.743 88.24L314.886 83.5976L311.176 85.0815L311.805 89.0272L316.743 88.24ZM318.993 87.34L320.85 91.9824L332.561 87.2981L320.821 82.6862L318.993 87.34ZM316.473 86.35L311.528 87.0857L311.953 89.9463L314.645 91.0038L316.473 86.35ZM313.233 64.57H308.233V64.9399L308.288 65.3057L313.233 64.57ZM313.233 41.62L312.844 36.6352L308.233 36.9954V41.62H313.233ZM318.993 41.17L319.383 46.1548L319.988 36.2701L318.993 41.17ZM313.233 40H308.233V44.0865L312.238 44.8999L313.233 40ZM313.233 35.23L312.173 30.3436L308.233 31.1981V35.23H313.233ZM335.643 30.37L336.396 25.427L335.485 25.2882L334.583 25.4836L335.643 30.37ZM358.683 33.88L363.623 34.6558L364.402 29.6935L359.436 28.937L358.683 33.88ZM355.983 51.07L355.618 56.0566L360.208 56.3931L360.923 51.8458L355.983 51.07ZM338.793 49.81L339.159 44.8234L337.755 44.7205L336.503 45.3651L338.793 49.81ZM332.853 52.87L330.563 48.4251L327.698 49.901L327.859 53.1197L332.853 52.87ZM333.303 61.87L334.946 66.5925L338.484 65.3618L338.297 61.6203L333.303 61.87ZM329.163 63.31L327.521 58.5875L329.163 68.31V63.31ZM333.393 63.31L338.384 63.0057L338.098 58.31H333.393V63.31ZM334.293 78.07L329.302 78.3743L329.541 82.2951L333.407 82.9909L334.293 78.07ZM343.293 79.69L342.407 84.6109L348.149 85.6445L348.292 79.8119L343.293 79.69ZM343.743 61.24L343.371 56.2539L338.855 56.5913L338.745 61.1181L343.743 61.24ZM359.403 60.07L364.387 59.673L363.992 54.7132L359.031 55.0839L359.403 60.07ZM361.023 80.41L365.962 81.1898L366.054 80.6041L366.007 80.013L361.023 80.41ZM360.3 77.1405L356.34 77.5005L357.246 87.4595L361.206 87.0995L360.3 77.1405ZM355.389 87.2787L359.079 88.3587L361.888 78.7613L358.198 77.6813L355.389 87.2787ZM355.573 82.6172L353.413 93.8672L363.233 95.7528L365.393 84.5028L355.573 82.6172ZM358.367 89.8102L317.777 89.4502L317.689 99.4498L358.279 99.8098L358.367 89.8102ZM322.671 93.6628L321.681 87.4528L311.805 89.0272L312.795 95.2372L322.671 93.6628ZM318.6 92.8824L320.85 91.9824L317.136 82.6976L314.886 83.5976L318.6 92.8824ZM320.821 82.6862L318.301 81.6962L314.645 91.0038L317.165 91.9938L320.821 82.6862ZM321.419 85.6143L318.179 63.8343L308.288 65.3057L311.528 87.0857L321.419 85.6143ZM318.233 64.57V41.62H308.233V64.57H318.233ZM313.623 46.6048L319.383 46.1548L318.604 36.1852L312.844 36.6352L313.623 46.6048ZM319.988 36.2701L314.228 35.1001L312.238 44.8999L317.998 46.0699L319.988 36.2701ZM318.233 40V35.23H308.233V40H318.233ZM314.293 40.1164L336.703 35.2564L334.583 25.4836L312.173 30.3436L314.293 40.1164ZM334.89 35.313L357.93 38.823L359.436 28.937L336.396 25.427L334.89 35.313ZM353.744 33.1042L351.044 50.2942L360.923 51.8458L363.623 34.6558L353.744 33.1042ZM356.349 46.0834L339.159 44.8234L338.428 54.7966L355.618 56.0566L356.349 46.0834ZM336.503 45.3651L330.563 48.4251L335.143 57.3149L341.083 54.2549L336.503 45.3651ZM327.859 53.1197L328.309 62.1197L338.297 61.6203L337.847 52.6203L327.859 53.1197ZM331.661 57.1475L327.521 58.5875L330.806 68.0325L334.946 66.5925L331.661 57.1475ZM329.163 68.31H333.393V58.31H329.163V68.31ZM328.402 63.6143L329.302 78.3743L339.284 77.7657L338.384 63.0057L328.402 63.6143ZM333.407 82.9909L342.407 84.6109L344.179 74.7691L335.179 73.1491L333.407 82.9909ZM348.292 79.8119L348.742 61.3619L338.745 61.1181L338.295 79.5681L348.292 79.8119ZM344.116 66.2261L359.776 65.0561L359.031 55.0839L343.371 56.2539L344.116 66.2261ZM354.419 60.467L356.039 80.807L366.007 80.013L364.387 59.673L354.419 60.467ZM356.084 79.6302L355.814 81.3402L365.692 82.8998L365.962 81.1898L356.084 79.6302ZM409.589 81.49L411.577 86.0778L414.935 84.6225L414.563 80.9813L409.589 81.49ZM406.889 82.66L404.901 78.0722L391.994 83.665L405.535 87.4733L406.889 82.66ZM409.769 83.47L414.738 82.9178L414.366 79.569L411.122 78.6567L409.769 83.47ZM410.759 92.38L411.119 97.367L416.302 96.9928L415.728 91.8278L410.759 92.38ZM385.829 94.18L385.031 99.1159L385.607 99.209L386.189 99.167L385.829 94.18ZM364.679 90.76L359.68 90.8711L359.772 95.0316L363.881 95.6959L364.679 90.76ZM364.499 82.66L362.128 78.2576L359.432 79.7095L359.5 82.7711L364.499 82.66ZM365.669 82.03L368.039 86.4324L378.562 80.766L367.139 77.2511L365.669 82.03ZM364.499 81.67L359.5 81.7895L359.586 85.3898L363.028 86.4489L364.499 81.67ZM363.959 59.08L363.032 54.1667L358.859 54.9541L358.96 59.1995L363.959 59.08ZM368.729 58.18L369.656 63.0933L369.879 53.3141L368.729 58.18ZM363.779 57.01L358.78 57.1302L358.873 60.9882L362.629 61.8759L363.779 57.01ZM363.329 38.29L362.199 33.4193L358.232 34.3393L358.33 38.4102L363.329 38.29ZM386.999 32.8L387.435 27.819L386.643 27.7498L385.869 27.9293L386.999 32.8ZM408.599 34.69L413.596 34.8664L413.763 30.1228L409.035 29.709L408.599 34.69ZM408.329 42.34L409.359 47.2327L413.188 46.4267L413.326 42.5164L408.329 42.34ZM403.199 43.42L402.169 38.5272L402.931 48.4128L403.199 43.42ZM408.239 43.69L413.232 43.9428L413.484 38.9639L408.506 38.6972L408.239 43.69ZM407.879 50.8L407.972 55.7991L412.636 55.7118L412.872 51.0528L407.879 50.8ZM383.849 51.25L383.755 46.2509L378.714 46.3453L378.85 51.3851L383.849 51.25ZM383.939 54.58L378.94 54.7151L379.08 59.863L384.221 59.572L383.939 54.58ZM403.019 53.5L408.01 53.211L407.722 48.2258L402.736 48.508L403.019 53.5ZM404.009 70.6L404.465 75.5791L409.28 75.1374L409 70.311L404.009 70.6ZM384.389 72.4L383.932 67.4209L378.97 67.8761L379.408 72.8395L384.389 72.4ZM384.659 75.46L379.678 75.8995L380.113 80.8315L385.049 80.4447L384.659 75.46ZM408.779 73.57L413.753 73.0613L413.256 68.2038L408.388 68.5853L408.779 73.57ZM407.601 76.9022L404.901 78.0722L408.877 87.2478L411.577 86.0778L407.601 76.9022ZM405.535 87.4733L408.415 88.2833L411.122 78.6567L408.242 77.8467L405.535 87.4733ZM404.799 84.0222L405.789 92.9322L415.728 91.8278L414.738 82.9178L404.799 84.0222ZM410.399 87.393L385.469 89.193L386.189 99.167L411.119 97.367L410.399 87.393ZM386.627 89.2441L365.477 85.8241L363.881 95.6959L385.031 99.1159L386.627 89.2441ZM369.677 90.6489L369.497 82.5489L359.5 82.7711L359.68 90.8711L369.677 90.6489ZM366.869 87.0624L368.039 86.4324L363.298 77.6276L362.128 78.2576L366.869 87.0624ZM367.139 77.2511L365.969 76.8911L363.028 86.4489L364.198 86.8089L367.139 77.2511ZM369.497 81.5505L368.957 58.9605L358.96 59.1995L359.5 81.7895L369.497 81.5505ZM364.886 63.9933L369.656 63.0933L367.802 53.2667L363.032 54.1667L364.886 63.9933ZM369.879 53.3141L364.929 52.1441L362.629 61.8759L367.579 63.0459L369.879 53.3141ZM368.777 56.8898L368.327 38.1698L358.33 38.4102L358.78 57.1302L368.777 56.8898ZM364.458 43.1607L388.128 37.6707L385.869 27.9293L362.199 33.4193L364.458 43.1607ZM386.563 37.781L408.163 39.671L409.035 29.709L387.435 27.819L386.563 37.781ZM403.602 34.5136L403.332 42.1636L413.326 42.5164L413.596 34.8664L403.602 34.5136ZM407.299 37.4473L402.169 38.5272L404.229 48.3127L409.359 47.2327L407.299 37.4473ZM402.931 48.4128L407.971 48.6828L408.506 38.6972L403.466 38.4272L402.931 48.4128ZM403.245 43.4372L402.885 50.5472L412.872 51.0528L413.232 43.9428L403.245 43.4372ZM407.785 45.8009L383.755 46.2509L383.942 56.2491L407.972 55.7991L407.785 45.8009ZM378.85 51.3851L378.94 54.7151L388.937 54.4449L388.847 51.1149L378.85 51.3851ZM384.221 59.572L403.301 58.492L402.736 48.508L383.656 49.588L384.221 59.572ZM398.027 53.789L399.017 70.889L409 70.311L408.01 53.211L398.027 53.789ZM403.552 65.6209L383.932 67.4209L384.845 77.3791L404.465 75.5791L403.552 65.6209ZM379.408 72.8395L379.678 75.8995L389.639 75.0205L389.369 71.9605L379.408 72.8395ZM385.049 80.4447L409.169 78.5547L408.388 68.5853L384.268 70.4753L385.049 80.4447ZM403.805 74.0787L404.615 81.9987L414.563 80.9813L413.753 73.0613L403.805 74.0787ZM461.242 82.66H456.242V88.0634L461.63 87.645L461.242 82.66ZM470.512 81.94L470.9 86.925L476.441 86.4946L475.429 81.0296L470.512 81.94ZM468.262 69.79L473.179 68.8796L472.574 65.6123L469.327 64.9047L468.262 69.79ZM461.242 68.26L462.307 63.3747L456.242 62.0529V68.26H461.242ZM461.242 73.48L462.064 78.412L466.242 77.7156V73.48H461.242ZM459.082 73.84L458.26 68.908L457.682 78.64L459.082 73.84ZM461.242 74.47H466.242V70.72L462.642 69.67L461.242 74.47ZM461.242 43.69L461.505 38.6969L456.242 38.4199V43.69H461.242ZM461.242 52.6H456.242V58.6141L462.155 57.5159L461.242 52.6ZM467.542 51.43L468.455 56.3459L473.234 55.4584L472.482 50.6563L467.542 51.43ZM466.372 43.96L471.312 43.1863L470.685 39.18L466.635 38.9669L466.372 43.96ZM485.632 87.16L485.914 92.1521L490.408 91.8989L490.626 87.4026L485.632 87.16ZM479.242 87.52L478.961 82.5279L478.398 92.4481L479.242 87.52ZM485.542 88.6L490.538 88.8111L490.724 84.4153L486.387 83.6719L485.542 88.6ZM485.272 94.99L485.165 99.9888L490.061 100.094L490.268 95.2011L485.272 94.99ZM443.512 94.09L438.513 94.1405L438.562 98.9845L443.405 99.0888L443.512 94.09ZM443.422 85.18L443.11 80.1897L438.375 80.4857L438.423 85.2305L443.422 85.18ZM449.182 84.82L449.494 89.8103L449.931 79.8764L449.182 84.82ZM443.242 83.92L438.243 83.965L438.281 88.2253L442.493 88.8636L443.242 83.92ZM442.972 53.95L441.794 49.0907L437.937 50.0259L437.973 53.995L442.972 53.95ZM445.942 53.23L447.12 58.0893L464.318 53.92L447.481 48.4728L445.942 53.23ZM442.882 52.24L437.883 52.2952L437.922 55.8905L441.343 56.9972L442.882 52.24ZM442.702 35.95L441.864 31.0208L437.655 31.7368L437.703 36.0052L442.702 35.95ZM464.392 32.26L465.498 27.3838L464.531 27.1645L463.554 27.3308L464.392 32.26ZM481.852 36.22L486.852 36.2732L486.895 32.2367L482.958 31.3438L481.852 36.22ZM481.762 44.68L483.042 49.5135L486.722 48.5395L486.762 44.7332L481.762 44.68ZM478.702 45.49L477.423 40.6565L478.118 50.4557L478.702 45.49ZM481.762 45.85L486.761 45.95L486.852 41.4143L482.347 40.8842L481.762 45.85ZM481.582 54.85L484.267 59.0683L486.528 57.6295L486.581 54.95L481.582 54.85ZM475.642 58.63L472.958 54.4117L465.954 58.8691L473.169 62.9756L475.642 58.63ZM486.712 64.93L491.706 65.1726L491.856 62.104L489.185 60.5844L486.712 64.93ZM461.63 87.645L470.9 86.925L470.125 76.955L460.855 77.675L461.63 87.645ZM475.429 81.0296L473.179 68.8796L463.346 70.7004L465.596 82.8504L475.429 81.0296ZM469.327 64.9047L462.307 63.3747L460.178 73.1453L467.198 74.6753L469.327 64.9047ZM456.242 68.26V73.48H466.242V68.26H456.242ZM460.42 68.548L458.26 68.908L459.904 78.772L462.064 78.412L460.42 68.548ZM457.682 78.64L459.842 79.27L462.642 69.67L460.482 69.04L457.682 78.64ZM456.242 74.47V82.66H466.242V74.47H456.242ZM456.242 43.69V52.6H466.242V43.69H456.242ZM462.155 57.5159L468.455 56.3459L466.629 46.5141L460.329 47.6841L462.155 57.5159ZM472.482 50.6563L471.312 43.1863L461.433 44.7337L462.603 52.2037L472.482 50.6563ZM466.635 38.9669L461.505 38.6969L460.98 48.6831L466.11 48.9531L466.635 38.9669ZM485.351 82.1679L478.961 82.5279L479.524 92.5121L485.914 92.1521L485.351 82.1679ZM478.398 92.4481L484.698 93.5281L486.387 83.6719L480.087 82.5919L478.398 92.4481ZM480.547 88.3889L480.277 94.7789L490.268 95.2011L490.538 88.8111L480.547 88.3889ZM485.38 89.9912L443.62 89.0912L443.405 99.0888L485.165 99.9888L485.38 89.9912ZM448.512 94.0395L448.422 85.1295L438.423 85.2305L438.513 94.1405L448.512 94.0395ZM443.734 90.1703L449.494 89.8103L448.87 79.8297L443.11 80.1897L443.734 90.1703ZM449.931 79.8764L443.991 78.9764L442.493 88.8636L448.433 89.7636L449.931 79.8764ZM448.242 83.875L447.972 53.905L437.973 53.995L438.243 83.965L448.242 83.875ZM444.15 58.8092L447.12 58.0893L444.764 48.3707L441.794 49.0907L444.15 58.8092ZM447.481 48.4728L444.421 47.4828L441.343 56.9972L444.403 57.9872L447.481 48.4728ZM447.882 52.1848L447.702 35.8948L437.703 36.0052L437.883 52.2952L447.882 52.1848ZM443.541 40.8792L465.231 37.1892L463.554 27.3308L441.864 31.0208L443.541 40.8792ZM463.286 37.1362L480.746 41.0962L482.958 31.3438L465.498 27.3838L463.286 37.1362ZM476.853 36.1668L476.763 44.6268L486.762 44.7332L486.852 36.2732L476.853 36.1668ZM480.483 39.8465L477.423 40.6565L479.982 50.3235L483.042 49.5135L480.483 39.8465ZM478.118 50.4557L481.178 50.8158L482.347 40.8842L479.287 40.5242L478.118 50.4557ZM476.763 45.75L476.583 54.75L486.581 54.95L486.761 45.95L476.763 45.75ZM478.898 50.6317L472.958 54.4117L478.327 62.8483L484.267 59.0683L478.898 50.6317ZM473.169 62.9756L484.239 69.2756L489.185 60.5844L478.115 54.2844L473.169 62.9756ZM481.718 64.6874L480.638 86.9174L490.626 87.4026L491.706 65.1726L481.718 64.6874ZM535.009 81.49L536.997 86.0778L540.355 84.6225L539.983 80.9813L535.009 81.49ZM532.309 82.66L530.321 78.0722L517.414 83.665L530.955 87.4733L532.309 82.66ZM535.189 83.47L540.158 82.9178L539.786 79.569L536.542 78.6567L535.189 83.47ZM536.179 92.38L536.539 97.367L541.722 96.9928L541.148 91.8278L536.179 92.38ZM511.249 94.18L510.45 99.1159L511.027 99.209L511.609 99.167L511.249 94.18ZM490.099 90.76L485.1 90.8711L485.192 95.0316L489.3 95.6959L490.099 90.76ZM489.919 82.66L487.548 78.2576L484.852 79.7095L484.92 82.7711L489.919 82.66ZM491.089 82.03L493.459 86.4324L503.982 80.766L492.559 77.2511L491.089 82.03ZM489.919 81.67L484.92 81.7895L485.006 85.3898L488.448 86.4489L489.919 81.67ZM489.379 59.08L488.452 54.1667L484.279 54.9541L484.38 59.1995L489.379 59.08ZM494.149 58.18L495.076 63.0933L495.299 53.3141L494.149 58.18ZM489.199 57.01L484.2 57.1302L484.293 60.9882L488.048 61.8759L489.199 57.01ZM488.749 38.29L487.619 33.4193L483.652 34.3393L483.75 38.4102L488.749 38.29ZM512.419 32.8L512.854 27.819L512.063 27.7498L511.289 27.9293L512.419 32.8ZM534.019 34.69L539.015 34.8664L539.183 30.1228L534.454 29.709L534.019 34.69ZM533.749 42.34L534.779 47.2327L538.607 46.4267L538.745 42.5164L533.749 42.34ZM528.619 43.42L527.589 38.5272L528.351 48.4128L528.619 43.42ZM533.659 43.69L538.652 43.9428L538.904 38.9639L533.926 38.6972L533.659 43.69ZM533.299 50.8L533.392 55.7991L538.056 55.7118L538.292 51.0528L533.299 50.8ZM509.269 51.25L509.175 46.2509L504.134 46.3453L504.27 51.3851L509.269 51.25ZM509.359 54.58L504.36 54.7151L504.5 59.863L509.641 59.572L509.359 54.58ZM528.439 53.5L533.43 53.211L533.142 48.2258L528.156 48.508L528.439 53.5ZM529.429 70.6L529.885 75.5791L534.7 75.1374L534.42 70.311L529.429 70.6ZM509.809 72.4L509.352 67.4209L504.39 67.8761L504.828 72.8395L509.809 72.4ZM510.079 75.46L505.098 75.8995L505.533 80.8315L510.469 80.4447L510.079 75.46ZM534.199 73.57L539.173 73.0613L538.676 68.2038L533.808 68.5853L534.199 73.57ZM533.021 76.9022L530.321 78.0722L534.297 87.2478L536.997 86.0778L533.021 76.9022ZM530.955 87.4733L533.835 88.2833L536.542 78.6567L533.662 77.8467L530.955 87.4733ZM530.219 84.0222L531.209 92.9322L541.148 91.8278L540.158 82.9178L530.219 84.0222ZM535.819 87.393L510.889 89.193L511.609 99.167L536.539 97.367L535.819 87.393ZM512.047 89.2441L490.897 85.8241L489.3 95.6959L510.45 99.1159L512.047 89.2441ZM495.097 90.6489L494.917 82.5489L484.92 82.7711L485.1 90.8711L495.097 90.6489ZM492.289 87.0624L493.459 86.4324L488.718 77.6276L487.548 78.2576L492.289 87.0624ZM492.559 77.2511L491.389 76.8911L488.448 86.4489L489.618 86.8089L492.559 77.2511ZM494.917 81.5505L494.377 58.9605L484.38 59.1995L484.92 81.7895L494.917 81.5505ZM490.306 63.9933L495.076 63.0933L493.222 53.2667L488.452 54.1667L490.306 63.9933ZM495.299 53.3141L490.349 52.1441L488.048 61.8759L492.998 63.0459L495.299 53.3141ZM494.197 56.8898L493.747 38.1698L483.75 38.4102L484.2 57.1302L494.197 56.8898ZM489.878 43.1607L513.548 37.6707L511.289 27.9293L487.619 33.4193L489.878 43.1607ZM511.983 37.781L533.583 39.671L534.454 29.709L512.854 27.819L511.983 37.781ZM529.022 34.5136L528.752 42.1636L538.745 42.5164L539.015 34.8664L529.022 34.5136ZM532.719 37.4473L527.589 38.5272L529.649 48.3127L534.779 47.2327L532.719 37.4473ZM528.351 48.4128L533.391 48.6828L533.926 38.6972L528.886 38.4272L528.351 48.4128ZM528.665 43.4372L528.305 50.5472L538.292 51.0528L538.652 43.9428L528.665 43.4372ZM533.205 45.8009L509.175 46.2509L509.362 56.2491L533.392 55.7991L533.205 45.8009ZM504.27 51.3851L504.36 54.7151L514.357 54.4449L514.267 51.1149L504.27 51.3851ZM509.641 59.572L528.721 58.492L528.156 48.508L509.076 49.588L509.641 59.572ZM523.447 53.789L524.437 70.889L534.42 70.311L533.43 53.211L523.447 53.789ZM528.972 65.6209L509.352 67.4209L510.265 77.3791L529.885 75.5791L528.972 65.6209ZM504.828 72.8395L505.098 75.8995L515.059 75.0205L514.789 71.9605L504.828 72.8395ZM510.469 80.4447L534.589 78.5547L533.808 68.5853L509.688 70.4753L510.469 80.4447ZM529.225 74.0787L530.035 81.9987L539.983 80.9813L539.173 73.0613L529.225 74.0787ZM581.345 36.58L581.835 41.556L586.874 41.0603L586.315 36.0278L581.345 36.58ZM575.855 37.12L575.366 32.144L575.215 42.0789L575.855 37.12ZM581.435 37.84L586.406 37.3046L585.984 33.3855L582.075 32.8811L581.435 37.84ZM582.695 49.54L582.956 54.5332L588.232 54.2576L587.666 49.0046L582.695 49.54ZM558.575 50.8L558.314 45.8068L553.241 46.0718L553.587 51.1401L558.575 50.8ZM558.845 54.76L553.857 55.1001L554.187 59.9429L559.037 59.7563L558.845 54.76ZM577.565 54.04L582.563 53.8944L582.416 48.8497L577.373 49.0437L577.565 54.04ZM577.835 63.31L579.351 68.0746L582.943 66.9318L582.833 63.1644L577.835 63.31ZM575.855 63.94L574.339 59.1754L560.357 63.6244L574.147 68.639L575.855 63.94ZM577.835 64.66L582.832 64.4847L582.714 61.1137L579.544 59.961L577.835 64.66ZM578.015 69.79L578.198 74.7867L583.187 74.6044L583.012 69.6147L578.015 69.79ZM558.305 70.51L558.123 65.5133L553.258 65.691L553.305 70.5585L558.305 70.51ZM558.395 79.78L559.078 84.7331L563.438 84.1318L563.395 79.7315L558.395 79.78ZM553.175 80.5L552.492 75.5469L552.326 85.4273L553.175 80.5ZM558.395 81.4L563.395 81.3286L563.335 77.178L559.245 76.4727L558.395 81.4ZM558.575 94V99H563.647L563.575 93.9286L558.575 94ZM539.675 94L534.677 94.1139L534.788 99H539.675V94ZM538.955 62.41L538.015 57.4992L533.86 58.2948L533.957 62.5239L538.955 62.41ZM543.185 61.6L544.126 66.5108L543.793 56.6371L543.185 61.6ZM538.775 61.06L533.776 61.1683L533.87 65.4967L538.168 66.0229L538.775 61.06ZM538.235 36.13L537.255 31.2271L533.146 32.0489L533.236 36.2383L538.235 36.13ZM561.635 31.45L562.52 26.5288L561.585 26.3609L560.655 26.5471L561.635 31.45ZM581.165 34.96L586.135 34.4078L585.723 30.6989L582.05 30.0388L581.165 34.96ZM580.856 31.604L575.366 32.144L576.345 42.096L581.835 41.556L580.856 31.604ZM575.215 42.0789L580.795 42.7989L582.075 32.8811L576.495 32.1611L575.215 42.0789ZM576.464 38.3754L577.724 50.0754L587.666 49.0046L586.406 37.3046L576.464 38.3754ZM582.434 44.5468L558.314 45.8068L558.836 55.7932L582.956 54.5332L582.434 44.5468ZM553.587 51.1401L553.857 55.1001L563.834 54.4199L563.564 50.4599L553.587 51.1401ZM559.037 59.7563L577.757 59.0363L577.373 49.0437L558.653 49.7637L559.037 59.7563ZM572.567 54.1856L572.837 63.4556L582.833 63.1644L582.563 53.8944L572.567 54.1856ZM576.319 58.5454L574.339 59.1754L577.371 68.7046L579.351 68.0746L576.319 58.5454ZM574.147 68.639L576.127 69.359L579.544 59.961L577.564 59.241L574.147 68.639ZM572.838 64.8353L573.018 69.9653L583.012 69.6147L582.832 64.4847L572.838 64.8353ZM577.833 64.7933L558.123 65.5133L558.488 75.5067L578.198 74.7867L577.833 64.7933ZM553.305 70.5585L553.395 79.8285L563.395 79.7315L563.305 70.4615L553.305 70.5585ZM557.712 74.8269L552.492 75.5469L553.858 85.4531L559.078 84.7331L557.712 74.8269ZM552.326 85.4273L557.546 86.3273L559.245 76.4727L554.025 75.5727L552.326 85.4273ZM553.396 81.4714L553.576 94.0714L563.575 93.9286L563.395 81.3286L553.396 81.4714ZM558.575 89H539.675V99H558.575V89ZM544.674 93.8861L543.954 62.2961L533.957 62.5239L534.677 94.1139L544.674 93.8861ZM539.896 67.3208L544.126 66.5108L542.245 56.6892L538.015 57.4992L539.896 67.3208ZM543.793 56.6371L539.383 56.0971L538.168 66.0229L542.578 66.5629L543.793 56.6371ZM543.774 60.9517L543.234 36.0217L533.236 36.2383L533.776 61.1683L543.774 60.9517ZM539.216 41.0329L562.616 36.3529L560.655 26.5471L537.255 31.2271L539.216 41.0329ZM560.751 36.3711L580.281 39.8812L582.05 30.0388L562.52 26.5288L560.751 36.3711ZM576.196 35.5121L576.376 37.1321L586.315 36.0278L586.135 34.4078L576.196 35.5121ZM603.734 77.17L598.738 77.3739L598.966 82.9495L604.483 82.1136L603.734 77.17ZM615.614 75.37L616.363 80.3136L621.47 79.5398L620.531 74.4608L615.614 75.37ZM610.754 49.09L615.671 48.1808L614.923 44.136L610.81 44.0903L610.754 49.09ZM602.654 49L602.71 44.0003L597.452 43.9419L597.658 49.1959L602.654 49ZM603.014 58.18L603.836 63.112L608.183 62.3875L608.01 57.9841L603.014 58.18ZM599.774 58.72L598.952 53.788L598.561 63.5707L599.774 58.72ZM603.014 59.53L608.01 59.3261L607.857 55.5869L604.227 54.6793L603.014 59.53ZM630.194 50.53L632.006 55.19L635.336 53.8951L635.19 50.3253L630.194 50.53ZM625.334 52.42L623.522 47.76L625.779 57.4002L625.334 52.42ZM630.374 51.97L635.37 51.7647L635.155 46.5233L629.929 46.9898L630.374 51.97ZM631.724 84.82L633.615 89.4485L636.864 88.1211L636.72 84.6147L631.724 84.82ZM623.354 88.24L623.76 93.2235L624.53 93.1608L625.245 92.8685L623.354 88.24ZM615.614 88.87L615.209 83.8865L614.824 93.8072L615.614 88.87ZM620.114 89.59L622.01 94.2165L638.483 87.4654L620.904 84.6528L620.114 89.59ZM609.134 94.09L607.639 98.8614L609.361 99.4006L611.03 98.7165L609.134 94.09ZM586.724 87.07L581.74 87.471L582.011 90.8331L585.229 91.8414L586.724 87.07ZM585.464 71.41L584.731 66.464L580.105 67.1493L580.48 71.811L585.464 71.41ZM590.324 70.69L591.057 75.636L591.219 65.7707L590.324 70.69ZM585.374 69.79L580.391 70.1998L580.705 74.0231L584.48 74.7093L585.374 69.79ZM583.124 42.43L581.206 37.8127L577.842 39.2101L578.141 42.8398L583.124 42.43ZM608.684 31.81L610.409 27.1169L608.572 26.442L606.766 27.1927L608.684 31.81ZM629.744 39.55L634.74 39.3453L634.603 36.0088L631.469 34.8569L629.744 39.55ZM604.483 82.1136L616.363 80.3136L614.865 70.4264L602.985 72.2264L604.483 82.1136ZM620.531 74.4608L615.671 48.1808L605.838 49.9992L610.698 76.2792L620.531 74.4608ZM610.81 44.0903L602.71 44.0003L602.599 53.9997L610.699 54.0897L610.81 44.0903ZM597.658 49.1959L598.018 58.3759L608.01 57.9841L607.65 48.8041L597.658 49.1959ZM602.192 53.248L598.952 53.788L600.596 63.652L603.836 63.112L602.192 53.248ZM598.561 63.5707L601.801 64.3807L604.227 54.6793L600.987 53.8693L598.561 63.5707ZM598.018 59.7339L598.738 77.3739L608.73 76.9661L608.01 59.3261L598.018 59.7339ZM628.382 45.87L623.522 47.76L627.146 57.08L632.006 55.19L628.382 45.87ZM625.779 57.4002L630.819 56.9502L629.929 46.9898L624.889 47.4398L625.779 57.4002ZM625.378 52.1753L626.728 85.0253L636.72 84.6147L635.37 51.7647L625.378 52.1753ZM629.833 80.1915L621.463 83.6115L625.245 92.8685L633.615 89.4485L629.833 80.1915ZM622.949 83.2565L615.209 83.8865L616.02 93.8535L623.76 93.2235L622.949 83.2565ZM614.824 93.8072L619.324 94.5272L620.904 84.6528L616.404 83.9328L614.824 93.8072ZM618.218 84.9635L607.238 89.4635L611.03 98.7165L622.01 94.2165L618.218 84.9635ZM610.629 89.3186L588.219 82.2986L585.229 91.8414L607.639 98.8614L610.629 89.3186ZM591.708 86.669L590.448 71.009L580.48 71.811L581.74 87.471L591.708 86.669ZM586.197 76.356L591.057 75.636L589.591 65.744L584.731 66.464L586.197 76.356ZM591.219 65.7707L586.269 64.8706L584.48 74.7093L589.43 75.6093L591.219 65.7707ZM590.357 69.3802L588.107 42.0202L578.141 42.8398L580.391 70.1998L590.357 69.3802ZM585.043 47.0473L610.603 36.4273L606.766 27.1927L581.206 37.8127L585.043 47.0473ZM606.959 36.5031L628.019 44.2431L631.469 34.8569L610.409 27.1169L606.959 36.5031ZM624.748 39.7547L625.198 50.7347L635.19 50.3253L634.74 39.3453L624.748 39.7547ZM661.658 58.18L663.278 62.9103L666.658 61.7527V58.18H661.658ZM661.658 43.6H666.658V38.6H661.658V43.6ZM653.108 43.6V38.6H647.497L648.141 44.1731L653.108 43.6ZM654.188 52.96L656.961 57.1202L659.505 55.4242L659.155 52.3869L654.188 52.96ZM652.298 54.22L649.524 50.0597L639.004 57.0733L651.476 59.152L652.298 54.22ZM654.458 54.58L659.429 54.0446L659.023 50.2719L655.28 49.648L654.458 54.58ZM655.088 60.43L650.116 60.9654L650.786 67.1881L656.708 65.1603L655.088 60.43ZM673.088 68.62L669.678 64.9631L666.408 68.0119L669.073 71.6011L673.088 68.62ZM682.178 80.86L686.912 79.2528L686.66 78.5093L686.192 77.8789L682.178 80.86ZM685.508 90.67L687.45 95.2773L691.738 93.4695L690.242 89.0628L685.508 90.67ZM667.148 98.41L662.679 100.653L664.778 104.835L669.09 103.017L667.148 98.41ZM654.818 73.84L659.286 71.5974L649.818 73.8824L654.818 73.84ZM654.908 84.46L655.924 89.3557L659.942 88.5216L659.907 84.4176L654.908 84.46ZM650.138 85.45L649.121 80.5543L649.316 90.382L650.138 85.45ZM654.998 86.26L659.997 86.2025L659.949 82.0163L655.82 81.328L654.998 86.26ZM655.088 94.09L655.161 99.0895L660.145 99.0165L660.087 94.0325L655.088 94.09ZM636.638 94.36L631.642 94.5748L631.851 99.4306L636.711 99.3595L636.638 94.36ZM634.208 37.84L633.386 32.908L629.022 33.6353L629.212 38.0548L634.208 37.84ZM639.608 36.94L640.43 41.872L640.416 32.0059L639.608 36.94ZM634.118 36.04L629.12 36.2066L629.257 40.3099L633.309 40.9741L634.118 36.04ZM634.028 33.34L633.067 28.4332L628.889 29.2513L629.03 33.5066L634.028 33.34ZM646.898 30.82L647.123 25.8251L646.525 25.798L645.937 25.9132L646.898 30.82ZM678.758 32.26L683.755 32.0909L683.598 27.4737L678.983 27.2651L678.758 32.26ZM679.568 56.2L680.752 61.0576L684.702 60.0942L684.565 56.0309L679.568 56.2ZM675.878 57.1L674.693 52.2424L675.154 62.0473L675.878 57.1ZM679.568 57.64L684.564 57.4515L684.407 53.295L680.292 52.6927L679.568 57.64ZM679.748 62.41L683.157 66.0669L684.83 64.5071L684.744 62.2215L679.748 62.41ZM666.658 58.18V43.6H656.658V58.18H666.658ZM661.658 38.6H653.108V48.6H661.658V38.6ZM648.141 44.1731L649.221 53.5331L659.155 52.3869L658.075 43.0269L648.141 44.1731ZM651.414 48.7997L649.524 50.0597L655.071 58.3802L656.961 57.1202L651.414 48.7997ZM651.476 59.152L653.636 59.512L655.28 49.648L653.12 49.288L651.476 59.152ZM649.486 55.1154L650.116 60.9654L660.059 59.8946L659.429 54.0446L649.486 55.1154ZM656.708 65.1603L663.278 62.9103L660.038 53.4497L653.468 55.6997L656.708 65.1603ZM669.073 71.6011L678.163 83.8411L686.192 77.8789L677.102 65.6389L669.073 71.6011ZM677.443 82.4672L680.773 92.2772L690.242 89.0628L686.912 79.2528L677.443 82.4672ZM683.565 86.0627L665.205 93.8027L669.09 103.017L687.45 95.2773L683.565 86.0627ZM671.616 96.1674L659.286 71.5974L650.349 76.0826L662.679 100.653L671.616 96.1674ZM649.818 73.8824L649.908 84.5024L659.907 84.4176L659.817 73.7976L649.818 73.8824ZM653.891 79.5643L649.121 80.5543L651.154 90.3457L655.924 89.3557L653.891 79.5643ZM649.316 90.382L654.176 91.192L655.82 81.328L650.96 80.518L649.316 90.382ZM649.998 86.3175L650.088 94.1475L660.087 94.0325L659.997 86.2025L649.998 86.3175ZM655.014 89.0905L636.564 89.3605L636.711 99.3595L655.161 99.0895L655.014 89.0905ZM641.633 94.1452L639.203 37.6252L629.212 38.0548L631.642 94.5748L641.633 94.1452ZM635.03 42.772L640.43 41.872L638.786 32.008L633.386 32.908L635.03 42.772ZM640.416 32.0059L634.926 31.1059L633.309 40.9741L638.799 41.8741L640.416 32.0059ZM639.115 35.8734L639.025 33.1734L629.03 33.5066L629.12 36.2066L639.115 35.8734ZM634.988 38.2468L647.858 35.7268L645.937 25.9132L633.067 28.4332L634.988 38.2468ZM646.672 35.8149L678.532 37.2549L678.983 27.2651L647.123 25.8251L646.672 35.8149ZM673.76 32.4291L674.57 56.3691L684.565 56.0309L683.755 32.0909L673.76 32.4291ZM678.383 51.3424L674.693 52.2424L677.062 61.9576L680.752 61.0576L678.383 51.3424ZM675.154 62.0473L678.844 62.5873L680.292 52.6927L676.602 52.1527L675.154 62.0473ZM674.571 57.8285L674.751 62.5985L684.744 62.2215L684.564 57.4515L674.571 57.8285ZM676.338 58.7531L669.678 64.9631L676.497 72.2769L683.157 66.0669L676.338 58.7531ZM732.938 81.49L734.926 86.0778L738.285 84.6225L737.912 80.9813L732.938 81.49ZM730.238 82.66L728.25 78.0722L715.344 83.665L728.885 87.4733L730.238 82.66ZM733.118 83.47L738.088 82.9178L737.716 79.569L734.472 78.6567L733.118 83.47ZM734.108 92.38L734.468 97.367L739.652 96.9928L739.078 91.8278L734.108 92.38ZM709.178 94.18L708.38 99.1159L708.956 99.209L709.538 99.167L709.178 94.18ZM688.028 90.76L683.03 90.8711L683.122 95.0316L687.23 95.6959L688.028 90.76ZM687.848 82.66L685.478 78.2576L682.781 79.7095L682.85 82.7711L687.848 82.66ZM689.018 82.03L691.389 86.4324L701.912 80.766L690.489 77.2511L689.018 82.03ZM687.848 81.67L682.85 81.7895L682.936 85.3898L686.378 86.4489L687.848 81.67ZM687.308 59.08L686.381 54.1667L682.208 54.9541L682.31 59.1995L687.308 59.08ZM692.078 58.18L693.005 63.0933L693.228 53.3141L692.078 58.18ZM687.128 57.01L682.13 57.1302L682.222 60.9882L685.978 61.8759L687.128 57.01ZM686.678 38.29L685.549 33.4193L681.582 34.3393L681.68 38.4102L686.678 38.29ZM710.348 32.8L710.784 27.819L709.993 27.7498L709.219 27.9293L710.348 32.8ZM731.948 34.69L736.945 34.8664L737.113 30.1228L732.384 29.709L731.948 34.69ZM731.678 42.34L732.708 47.2327L736.537 46.4267L736.675 42.5164L731.678 42.34ZM726.548 43.42L725.518 38.5272L726.281 48.4128L726.548 43.42ZM731.588 43.69L736.582 43.9428L736.834 38.9639L731.856 38.6972L731.588 43.69ZM731.228 50.8L731.322 55.7991L735.986 55.7118L736.222 51.0528L731.228 50.8ZM707.198 51.25L707.105 46.2509L702.064 46.3453L702.2 51.3851L707.198 51.25ZM707.288 54.58L702.29 54.7151L702.429 59.863L707.571 59.572L707.288 54.58ZM726.368 53.5L731.36 53.211L731.071 48.2258L726.086 48.508L726.368 53.5ZM727.358 70.6L727.815 75.5791L732.629 75.1374L732.35 70.311L727.358 70.6ZM707.738 72.4L707.281 67.4209L702.32 67.8761L702.758 72.8395L707.738 72.4ZM708.008 75.46L703.028 75.8995L703.463 80.8315L708.399 80.4447L708.008 75.46ZM732.128 73.57L737.102 73.0613L736.606 68.2038L731.738 68.5853L732.128 73.57ZM730.95 76.9022L728.25 78.0722L732.226 87.2478L734.926 86.0778L730.95 76.9022ZM728.885 87.4733L731.765 88.2833L734.472 78.6567L731.592 77.8467L728.885 87.4733ZM728.149 84.0222L729.139 92.9322L739.078 91.8278L738.088 82.9178L728.149 84.0222ZM733.748 87.393L708.818 89.193L709.538 99.167L734.468 97.367L733.748 87.393ZM709.976 89.2441L688.826 85.8241L687.23 95.6959L708.38 99.1159L709.976 89.2441ZM693.027 90.6489L692.847 82.5489L682.85 82.7711L683.03 90.8711L693.027 90.6489ZM690.219 87.0624L691.389 86.4324L686.648 77.6276L685.478 78.2576L690.219 87.0624ZM690.489 77.2511L689.319 76.8911L686.378 86.4489L687.548 86.8089L690.489 77.2511ZM692.847 81.5505L692.307 58.9605L682.31 59.1995L682.85 81.7895L692.847 81.5505ZM688.235 63.9933L693.005 63.0933L691.151 53.2667L686.381 54.1667L688.235 63.9933ZM693.228 53.3141L688.278 52.1441L685.978 61.8759L690.928 63.0459L693.228 53.3141ZM692.127 56.8898L691.677 38.1698L681.68 38.4102L682.13 57.1302L692.127 56.8898ZM687.808 43.1607L711.478 37.6707L709.219 27.9293L685.549 33.4193L687.808 43.1607ZM709.912 37.781L731.512 39.671L732.384 29.709L710.784 27.819L709.912 37.781ZM726.951 34.5136L726.681 42.1636L736.675 42.5164L736.945 34.8664L726.951 34.5136ZM730.648 37.4473L725.518 38.5272L727.578 48.3127L732.708 47.2327L730.648 37.4473ZM726.281 48.4128L731.321 48.6828L731.856 38.6972L726.816 38.4272L726.281 48.4128ZM726.595 43.4372L726.235 50.5472L736.222 51.0528L736.582 43.9428L726.595 43.4372ZM731.135 45.8009L707.105 46.2509L707.292 56.2491L731.322 55.7991L731.135 45.8009ZM702.2 51.3851L702.29 54.7151L712.286 54.4449L712.196 51.1149L702.2 51.3851ZM707.571 59.572L726.651 58.492L726.086 48.508L707.006 49.588L707.571 59.572ZM721.377 53.789L722.367 70.889L732.35 70.311L731.36 53.211L721.377 53.789ZM726.901 65.6209L707.281 67.4209L708.195 77.3791L727.815 75.5791L726.901 65.6209ZM702.758 72.8395L703.028 75.8995L712.989 75.0205L712.719 71.9605L702.758 72.8395ZM708.399 80.4447L732.519 78.5547L731.738 68.5853L707.618 70.4753L708.399 80.4447ZM727.154 74.0787L727.964 81.9987L737.912 80.9813L737.102 73.0613L727.154 74.0787ZM789.722 79.33L787.486 83.8021L792.888 86.5033L794.533 80.6916L789.722 79.33ZM793.772 65.02L798.583 66.3816L798.981 64.9743L798.558 63.5741L793.772 65.02ZM788.552 47.74L793.338 46.2941L792.265 42.74H788.552V47.74ZM783.422 47.74V42.74H777.934L778.444 48.2038L783.422 47.74ZM784.772 62.23L786.292 66.9933L790.123 65.7705L789.75 61.7662L784.772 62.23ZM780.542 63.58L779.022 58.8167L780.23 68.5703L780.542 63.58ZM784.862 63.85L789.841 63.3914L789.448 59.1269L785.174 58.8597L784.862 63.85ZM786.122 77.53L781.143 77.9886L781.398 80.7583L783.886 82.0021L786.122 77.53ZM808.262 48.91L813.232 48.3608L812.688 43.4424L807.764 43.9348L808.262 48.91ZM811.952 82.3L814.454 86.6287L817.28 84.995L816.922 81.7508L811.952 82.3ZM800.432 88.96V93.96H801.773L802.934 93.2887L800.432 88.96ZM794.852 88.96V83.96L793.536 93.7838L794.852 88.96ZM798.812 90.04L801.271 94.3938L811.857 88.4153L800.128 85.2162L798.812 90.04ZM791.162 94.36L790.566 99.3244L792.193 99.5197L793.621 98.7138L791.162 94.36ZM766.412 91.39L761.412 91.41L761.43 95.828L765.816 96.3544L766.412 91.39ZM766.232 46.39L763.851 41.9935L761.22 43.4184L761.232 46.41L766.232 46.39ZM768.392 45.22L770.773 49.6165L779.579 44.847L770.475 40.6747L768.392 45.22ZM766.232 44.23H761.232V47.4385L764.149 48.7753L766.232 44.23ZM766.232 37.21L764.529 32.5089L761.232 33.7033V37.21H766.232ZM783.872 30.82L786.011 26.3006L784.128 25.4094L782.169 26.1189L783.872 30.82ZM807.452 41.98L812.416 41.3783L812.084 38.6404L809.591 37.4606L807.452 41.98ZM808.172 47.92L809.967 52.5867L813.605 51.1876L813.136 47.3183L808.172 47.92ZM804.662 49.27L802.867 44.6033L805.159 54.2452L804.662 49.27ZM794.533 80.6916L798.583 66.3816L788.961 63.6584L784.911 77.9684L794.533 80.6916ZM798.558 63.5741L793.338 46.2941L783.766 49.1859L788.986 66.4659L798.558 63.5741ZM788.552 42.74H783.422V52.74H788.552V42.74ZM778.444 48.2038L779.794 62.6938L789.75 61.7662L788.4 47.2762L778.444 48.2038ZM783.252 57.4667L779.022 58.8167L782.062 68.3433L786.292 66.9933L783.252 57.4667ZM780.23 68.5703L784.55 68.8403L785.174 58.8597L780.854 58.5897L780.23 68.5703ZM779.883 64.3086L781.143 77.9886L791.101 77.0714L789.841 63.3914L779.883 64.3086ZM783.886 82.0021L787.486 83.8021L791.958 74.8579L788.358 73.0579L783.886 82.0021ZM803.292 49.4592L806.982 82.8492L816.922 81.7508L813.232 48.3608L803.292 49.4592ZM809.449 77.9713L797.929 84.6313L802.934 93.2887L814.454 86.6287L809.449 77.9713ZM800.432 83.96H794.852V93.96H800.432V83.96ZM793.536 93.7838L797.496 94.8638L800.128 85.2162L796.168 84.1362L793.536 93.7838ZM796.353 85.6862L788.703 90.0062L793.621 98.7138L801.271 94.3938L796.353 85.6862ZM791.758 89.3956L767.008 86.4256L765.816 96.3544L790.566 99.3244L791.758 89.3956ZM771.412 91.37L771.232 46.37L761.232 46.41L761.412 91.41L771.412 91.37ZM768.613 50.7865L770.773 49.6165L766.011 40.8235L763.851 41.9935L768.613 50.7865ZM770.475 40.6747L768.315 39.6847L764.149 48.7753L766.309 49.7653L770.475 40.6747ZM771.232 44.23V37.21H761.232V44.23H771.232ZM767.935 41.9111L785.575 35.5211L782.169 26.1189L764.529 32.5089L767.935 41.9111ZM781.733 35.3394L805.313 46.4994L809.591 37.4606L786.011 26.3006L781.733 35.3394ZM802.488 42.5817L803.208 48.5217L813.136 47.3183L812.416 41.3783L802.488 42.5817ZM806.377 43.2533L802.867 44.6033L806.457 53.9367L809.967 52.5867L806.377 43.2533ZM805.159 54.2452L808.759 53.8852L807.764 43.9348L804.164 44.2948L805.159 54.2452ZM833.129 77.17L828.133 77.3739L828.36 82.9495L833.878 82.1136L833.129 77.17ZM845.009 75.37L845.758 80.3136L850.865 79.5398L849.925 74.4608L845.009 75.37ZM840.149 49.09L845.065 48.1808L844.317 44.136L840.204 44.0903L840.149 49.09ZM832.049 49L832.104 44.0003L826.846 43.9419L827.053 49.1959L832.049 49ZM832.409 58.18L833.231 63.112L837.578 62.3875L837.405 57.9841L832.409 58.18ZM829.169 58.72L828.347 53.788L827.956 63.5707L829.169 58.72ZM832.409 59.53L837.405 59.3261L837.252 55.5869L833.621 54.6793L832.409 59.53ZM859.589 50.53L861.401 55.19L864.731 53.8951L864.584 50.3253L859.589 50.53ZM854.729 52.42L852.916 47.76L855.173 57.4002L854.729 52.42ZM859.769 51.97L864.764 51.7647L864.549 46.5233L859.324 46.9898L859.769 51.97ZM861.119 84.82L863.01 89.4485L866.259 88.1211L866.114 84.6147L861.119 84.82ZM852.749 88.24L853.154 93.2235L853.925 93.1608L854.64 92.8685L852.749 88.24ZM845.009 88.87L844.603 83.8865L844.219 93.8072L845.009 88.87ZM849.509 89.59L851.405 94.2165L867.877 87.4654L850.299 84.6528L849.509 89.59ZM838.529 94.09L837.034 98.8614L838.756 99.4006L840.425 98.7165L838.529 94.09ZM816.119 87.07L811.135 87.471L811.405 90.8331L814.624 91.8414L816.119 87.07ZM814.859 71.41L814.126 66.464L809.5 67.1493L809.875 71.811L814.859 71.41ZM819.719 70.69L820.451 75.636L820.613 65.7707L819.719 70.69ZM814.769 69.79L809.785 70.1998L810.1 74.0231L813.874 74.7093L814.769 69.79ZM812.519 42.43L810.6 37.8127L807.237 39.2101L807.535 42.8398L812.519 42.43ZM838.079 31.81L839.803 27.1169L837.967 26.442L836.16 27.1927L838.079 31.81ZM859.139 39.55L864.134 39.3453L863.998 36.0088L860.863 34.8569L859.139 39.55ZM833.878 82.1136L845.758 80.3136L844.26 70.4264L832.38 72.2264L833.878 82.1136ZM849.925 74.4608L845.065 48.1808L835.232 49.9992L840.092 76.2792L849.925 74.4608ZM840.204 44.0903L832.104 44.0003L831.993 53.9997L840.093 54.0897L840.204 44.0903ZM827.053 49.1959L827.413 58.3759L837.405 57.9841L837.045 48.8041L827.053 49.1959ZM831.587 53.248L828.347 53.788L829.991 63.652L833.231 63.112L831.587 53.248ZM827.956 63.5707L831.196 64.3807L833.621 54.6793L830.381 53.8693L827.956 63.5707ZM827.413 59.7339L828.133 77.3739L838.125 76.9661L837.405 59.3261L827.413 59.7339ZM857.776 45.87L852.916 47.76L856.541 57.08L861.401 55.19L857.776 45.87ZM855.173 57.4002L860.213 56.9502L859.324 46.9898L854.284 47.4398L855.173 57.4002ZM854.773 52.1753L856.123 85.0253L866.114 84.6147L864.764 51.7647L854.773 52.1753ZM859.227 80.1915L850.857 83.6115L854.64 92.8685L863.01 89.4485L859.227 80.1915ZM852.343 83.2565L844.603 83.8865L845.414 93.8535L853.154 93.2235L852.343 83.2565ZM844.219 93.8072L848.719 94.5272L850.299 84.6528L845.799 83.9328L844.219 93.8072ZM847.613 84.9635L836.633 89.4635L840.425 98.7165L851.405 94.2165L847.613 84.9635ZM840.023 89.3186L817.613 82.2986L814.624 91.8414L837.034 98.8614L840.023 89.3186ZM821.103 86.669L819.843 71.009L809.875 71.811L811.135 87.471L821.103 86.669ZM815.591 76.356L820.451 75.636L818.986 65.744L814.126 66.464L815.591 76.356ZM820.613 65.7707L815.663 64.8706L813.874 74.7093L818.824 75.6093L820.613 65.7707ZM819.752 69.3802L817.502 42.0202L807.535 42.8398L809.785 70.1998L819.752 69.3802ZM814.437 47.0473L839.997 36.4273L836.16 27.1927L810.6 37.8127L814.437 47.0473ZM836.354 36.5031L857.414 44.2431L860.863 34.8569L839.803 27.1169L836.354 36.5031ZM854.143 39.7547L854.593 50.7347L864.584 50.3253L864.134 39.3453L854.143 39.7547ZM911.212 82.12L911.665 87.0995L915.543 86.7469L916.151 82.8998L911.212 82.12ZM907.252 82.48L906.799 77.5005L905.848 87.2787L907.252 82.48ZM910.942 83.56L915.852 84.5028L916.71 80.0383L912.347 78.7613L910.942 83.56ZM908.782 94.81L908.738 99.8098L912.906 99.8468L913.692 95.7528L908.782 94.81ZM868.192 94.45L863.254 95.2372L863.92 99.4123L868.148 99.4498L868.192 94.45ZM867.202 88.24L865.345 83.5976L861.635 85.0815L862.264 89.0272L867.202 88.24ZM869.452 87.34L871.309 91.9824L883.02 87.2981L871.28 82.6862L869.452 87.34ZM866.932 86.35L861.987 87.0857L862.412 89.9463L865.104 91.0038L866.932 86.35ZM863.692 64.57H858.692V64.9399L858.747 65.3057L863.692 64.57ZM863.692 41.62L863.303 36.6352L858.692 36.9954V41.62H863.692ZM869.452 41.17L869.842 46.1548L870.447 36.2701L869.452 41.17ZM863.692 40H858.692V44.0865L862.697 44.8999L863.692 40ZM863.692 35.23L862.632 30.3436L858.692 31.1981V35.23H863.692ZM886.102 30.37L886.855 25.427L885.944 25.2882L885.042 25.4836L886.102 30.37ZM909.142 33.88L914.082 34.6558L914.861 29.6935L909.895 28.937L909.142 33.88ZM906.442 51.07L906.077 56.0566L910.667 56.3931L911.382 51.8458L906.442 51.07ZM889.252 49.81L889.618 44.8234L888.214 44.7205L886.962 45.3651L889.252 49.81ZM883.312 52.87L881.022 48.4251L878.157 49.901L878.318 53.1197L883.312 52.87ZM883.762 61.87L885.405 66.5925L888.943 65.3618L888.756 61.6203L883.762 61.87ZM879.622 63.31L877.98 58.5875L879.622 68.31V63.31ZM883.852 63.31L888.843 63.0057L888.557 58.31H883.852V63.31ZM884.752 78.07L879.761 78.3743L880 82.2951L883.866 82.9909L884.752 78.07ZM893.752 79.69L892.866 84.6109L898.608 85.6445L898.751 79.8119L893.752 79.69ZM894.202 61.24L893.83 56.2539L889.314 56.5913L889.204 61.1181L894.202 61.24ZM909.862 60.07L914.846 59.673L914.451 54.7132L909.49 55.0839L909.862 60.07ZM911.482 80.41L916.421 81.1898L916.513 80.6041L916.466 80.013L911.482 80.41ZM910.759 77.1405L906.799 77.5005L907.705 87.4595L911.665 87.0995L910.759 77.1405ZM905.848 87.2787L909.538 88.3587L912.347 78.7613L908.657 77.6813L905.848 87.2787ZM906.032 82.6172L903.872 93.8672L913.692 95.7528L915.852 84.5028L906.032 82.6172ZM908.826 89.8102L868.236 89.4502L868.148 99.4498L908.738 99.8098L908.826 89.8102ZM873.13 93.6628L872.14 87.4528L862.264 89.0272L863.254 95.2372L873.13 93.6628ZM869.059 92.8824L871.309 91.9824L867.595 82.6976L865.345 83.5976L869.059 92.8824ZM871.28 82.6862L868.76 81.6962L865.104 91.0038L867.624 91.9938L871.28 82.6862ZM871.878 85.6143L868.638 63.8343L858.747 65.3057L861.987 87.0857L871.878 85.6143ZM868.692 64.57V41.62H858.692V64.57H868.692ZM864.082 46.6048L869.842 46.1548L869.063 36.1852L863.303 36.6352L864.082 46.6048ZM870.447 36.2701L864.687 35.1001L862.697 44.8999L868.457 46.0699L870.447 36.2701ZM868.692 40V35.23H858.692V40H868.692ZM864.752 40.1164L887.162 35.2564L885.042 25.4836L862.632 30.3436L864.752 40.1164ZM885.349 35.313L908.389 38.823L909.895 28.937L886.855 25.427L885.349 35.313ZM904.203 33.1042L901.503 50.2942L911.382 51.8458L914.082 34.6558L904.203 33.1042ZM906.808 46.0834L889.618 44.8234L888.887 54.7966L906.077 56.0566L906.808 46.0834ZM886.962 45.3651L881.022 48.4251L885.602 57.3149L891.542 54.2549L886.962 45.3651ZM878.318 53.1197L878.768 62.1197L888.756 61.6203L888.306 52.6203L878.318 53.1197ZM882.12 57.1475L877.98 58.5875L881.265 68.0325L885.405 66.5925L882.12 57.1475ZM879.622 68.31H883.852V58.31H879.622V68.31ZM878.861 63.6143L879.761 78.3743L889.743 77.7657L888.843 63.0057L878.861 63.6143ZM883.866 82.9909L892.866 84.6109L894.638 74.7691L885.638 73.1491L883.866 82.9909ZM898.751 79.8119L899.201 61.3619L889.204 61.1181L888.754 79.5681L898.751 79.8119ZM894.575 66.2261L910.235 65.0561L909.49 55.0839L893.83 56.2539L894.575 66.2261ZM904.878 60.467L906.498 80.807L916.466 80.013L914.846 59.673L904.878 60.467ZM906.543 79.6302L906.273 81.3402L916.151 82.8998L916.421 81.1898L906.543 79.6302ZM960.048 81.49L962.036 86.0778L965.394 84.6225L965.022 80.9813L960.048 81.49ZM957.348 82.66L955.36 78.0722L942.453 83.665L955.994 87.4733L957.348 82.66ZM960.228 83.47L965.197 82.9178L964.825 79.569L961.581 78.6567L960.228 83.47ZM961.218 92.38L961.578 97.367L966.761 96.9928L966.187 91.8278L961.218 92.38ZM936.288 94.18L935.49 99.1159L936.066 99.209L936.648 99.167L936.288 94.18ZM915.138 90.76L910.139 90.8711L910.231 95.0316L914.34 95.6959L915.138 90.76ZM914.958 82.66L912.587 78.2576L909.891 79.7095L909.959 82.7711L914.958 82.66ZM916.128 82.03L918.498 86.4324L929.021 80.766L917.598 77.2511L916.128 82.03ZM914.958 81.67L909.959 81.7895L910.045 85.3898L913.487 86.4489L914.958 81.67ZM914.418 59.08L913.491 54.1667L909.318 54.9541L909.419 59.1995L914.418 59.08ZM919.188 58.18L920.115 63.0933L920.338 53.3141L919.188 58.18ZM914.238 57.01L909.239 57.1302L909.332 60.9882L913.088 61.8759L914.238 57.01ZM913.788 38.29L912.658 33.4193L908.691 34.3393L908.789 38.4102L913.788 38.29ZM937.458 32.8L937.893 27.819L937.102 27.7498L936.328 27.9293L937.458 32.8ZM959.058 34.69L964.055 34.8664L964.222 30.1228L959.493 29.709L959.058 34.69ZM958.788 42.34L959.818 47.2327L963.647 46.4267L963.785 42.5164L958.788 42.34ZM953.658 43.42L952.628 38.5272L953.39 48.4128L953.658 43.42ZM958.698 43.69L963.691 43.9428L963.943 38.9639L958.965 38.6972L958.698 43.69ZM958.338 50.8L958.431 55.7991L963.095 55.7118L963.331 51.0528L958.338 50.8ZM934.308 51.25L934.214 46.2509L929.173 46.3453L929.309 51.3851L934.308 51.25ZM934.398 54.58L929.399 54.7151L929.539 59.863L934.68 59.572L934.398 54.58ZM953.478 53.5L958.469 53.211L958.181 48.2258L953.195 48.508L953.478 53.5ZM954.468 70.6L954.924 75.5791L959.739 75.1374L959.459 70.311L954.468 70.6ZM934.848 72.4L934.391 67.4209L929.429 67.8761L929.867 72.8395L934.848 72.4ZM935.118 75.46L930.137 75.8995L930.572 80.8315L935.508 80.4447L935.118 75.46ZM959.238 73.57L964.212 73.0613L963.715 68.2038L958.847 68.5853L959.238 73.57ZM958.06 76.9022L955.36 78.0722L959.336 87.2478L962.036 86.0778L958.06 76.9022ZM955.994 87.4733L958.874 88.2833L961.581 78.6567L958.701 77.8467L955.994 87.4733ZM955.258 84.0222L956.248 92.9322L966.187 91.8278L965.197 82.9178L955.258 84.0222ZM960.858 87.393L935.928 89.193L936.648 99.167L961.578 97.367L960.858 87.393ZM937.086 89.2441L915.936 85.8241L914.34 95.6959L935.49 99.1159L937.086 89.2441ZM920.136 90.6489L919.956 82.5489L909.959 82.7711L910.139 90.8711L920.136 90.6489ZM917.328 87.0624L918.498 86.4324L913.757 77.6276L912.587 78.2576L917.328 87.0624ZM917.598 77.2511L916.428 76.8911L913.487 86.4489L914.657 86.8089L917.598 77.2511ZM919.956 81.5505L919.416 58.9605L909.419 59.1995L909.959 81.7895L919.956 81.5505ZM915.345 63.9933L920.115 63.0933L918.261 53.2667L913.491 54.1667L915.345 63.9933ZM920.338 53.3141L915.388 52.1441L913.088 61.8759L918.038 63.0459L920.338 53.3141ZM919.236 56.8898L918.786 38.1698L908.789 38.4102L909.239 57.1302L919.236 56.8898ZM914.917 43.1607L938.587 37.6707L936.328 27.9293L912.658 33.4193L914.917 43.1607ZM937.022 37.781L958.622 39.671L959.493 29.709L937.893 27.819L937.022 37.781ZM954.061 34.5136L953.791 42.1636L963.785 42.5164L964.055 34.8664L954.061 34.5136ZM957.758 37.4473L952.628 38.5272L954.688 48.3127L959.818 47.2327L957.758 37.4473ZM953.39 48.4128L958.43 48.6828L958.965 38.6972L953.925 38.4272L953.39 48.4128ZM953.704 43.4372L953.344 50.5472L963.331 51.0528L963.691 43.9428L953.704 43.4372ZM958.244 45.8009L934.214 46.2509L934.401 56.2491L958.431 55.7991L958.244 45.8009ZM929.309 51.3851L929.399 54.7151L939.396 54.4449L939.306 51.1149L929.309 51.3851ZM934.68 59.572L953.76 58.492L953.195 48.508L934.115 49.588L934.68 59.572ZM948.486 53.789L949.476 70.889L959.459 70.311L958.469 53.211L948.486 53.789ZM954.011 65.6209L934.391 67.4209L935.304 77.3791L954.924 75.5791L954.011 65.6209ZM929.867 72.8395L930.137 75.8995L940.098 75.0205L939.828 71.9605L929.867 72.8395ZM935.508 80.4447L959.628 78.5547L958.847 68.5853L934.727 70.4753L935.508 80.4447ZM954.264 74.0787L955.074 81.9987L965.022 80.9813L964.212 73.0613L954.264 74.0787Z" fill="black" mask="url(#path-1-outside-1_3157_4657)"/>
</g>
<defs>
<filter id="filter0_d_3157_4657" x="0.640625" y="0.370117" width="1000.58" height="148.04" filterUnits="userSpaceOnUse" color-interpolation-filters="sRGB">
<feFlood flood-opacity="0" result="BackgroundImageFix"/>
<feColorMatrix in="SourceAlpha" type="matrix" values="0 0 0 0 0 0 0 0 0 0 0 0 0 0 0 0 0 0 127 0" result="hardAlpha"/>
<feOffset dy="10"/>
<feGaussianBlur stdDeviation="20"/>
<feComposite in2="hardAlpha" operator="out"/>
<feColorMatrix type="matrix" values="0 0 0 0 0 0 0 0 0 0 0 0 0 0 0 0 0 0 0.35 0"/>
<feBlend mode="normal" in2="BackgroundImageFix" result="effect1_dropShadow_3157_4657"/>
<feBlend mode="normal" in="SourceGraphic" in2="effect1_dropShadow_3157_4657" result="shape"/>
</filter>
<linearGradient id="paint0_linear_3157_4657" x1="553.814" y1="112" x2="543.64" y2="-3.51099" gradientUnits="userSpaceOnUse">
<stop stop-color="#FFF0F8"/>
<stop offset="0.413916" stop-color="#E9E9E9"/>
<stop offset="1" stop-color="#FFF0F8"/>
</linearGradient>
</defs>
</svg>
